<svg width="96.484" height="95.316" xmlns="http://www.w3.org/2000/svg">

 <g>
  <title>Layer 1</title>
  <g data-name="Group 1170" id="Group_1170">
   <g data-name="Group 1059" id="Group_1059">
    <path stroke="#fff" fill="#fff" d="m76.117,27.82899a1.352,1.352 0 0 0 -1.266,0.365l-5.611,5.655l-2.69,0l-2.961,-3.068l0,-2.728l5.53,-5.613a1.353,1.353 0 0 0 -0.532,-2.232a13.545,13.545 0 0 0 -17.397,16.335l-9.97,9.97l-16.609,-16.647l0,-3.267a1.353,1.353 0 0 0 -0.657,-1.16l-9.57,-5.743a1.352,1.352 0 0 0 -1.653,0.2l-3.828,3.827a1.355,1.355 0 0 0 -0.2,1.654l5.741,9.57a1.354,1.354 0 0 0 1.16,0.657l3.266,0l16.611,16.647l-9.932,9.931a13.543,13.543 0 0 0 -16.335,17.4a1.354,1.354 0 0 0 2.243,0.521l5.61,-5.655l2.7,0l3.082,3.082l0,2.7l-5.655,5.611a1.354,1.354 0 0 0 0.522,2.243a13.546,13.546 0 0 0 17.4,-16.336l7.976,-7.976l1.827,1.985l-0.839,0.838a1.354,1.354 0 1 0 1.914,1.914l0.759,-0.76l17.143,18.622l0.039,0.04a8.121,8.121 0 0 0 11.485,-11.485l-0.042,-0.04l-18.651,-17.11l0.751,-0.751a1.354,1.354 0 1 0 -1.914,-1.914l-0.833,0.833l-1.988,-1.825l8.015,-8.015a13.542,13.542 0 0 0 16.334,-17.4a1.352,1.352 0 0 0 -0.975,-0.875zm-55.731,5.47a1.34,1.34 0 0 0 -0.957,-0.384l-3.061,0l-4.8,-8.02l2.333,-2.333l8.007,4.8l0,3.061a1.353,1.353 0 0 0 0.4,0.956l17.007,17.046l-1.925,1.918l-17.004,-17.044zm34.427,26.4l18.714,17.168a5.415,5.415 0 0 1 -7.658,7.657l-17.199,-18.681l6.143,-6.144zm-2,-1.832l-5.982,5.981l-1.827,-1.985l5.821,-5.822l1.988,1.826zm11.449,-14a10.816,10.816 0 0 1 -3.459,-0.564a1.356,1.356 0 0 0 -1.389,0.325l-26.789,26.79a1.353,1.353 0 0 0 -0.326,1.389a10.838,10.838 0 0 1 -10.264,14.286a11.066,11.066 0 0 1 -1.18,-0.063l4.3,-4.265a1.354,1.354 0 0 0 0.4,-0.961l0,-3.829a1.352,1.352 0 0 0 -0.4,-0.957l-3.865,-3.875a1.354,1.354 0 0 0 -0.957,-0.4l-3.829,0a1.354,1.354 0 0 0 -0.961,0.4l-4.265,4.3a10.932,10.932 0 0 1 -0.063,-1.18a10.839,10.839 0 0 1 14.287,-10.263a1.352,1.352 0 0 0 1.389,-0.326l26.789,-26.789a1.354,1.354 0 0 0 0.326,-1.389a10.837,10.837 0 0 1 10.263,-14.286a11.041,11.041 0 0 1 1.215,0.067l-4.21,4.272a1.351,1.351 0 0 0 -0.389,0.949l0,3.829a1.351,1.351 0 0 0 0.379,0.94l3.739,3.875a1.352,1.352 0 0 0 0.974,0.413l3.829,0a1.351,1.351 0 0 0 0.961,-0.4l4.265,-4.3a10.959,10.959 0 0 1 0.063,1.18a10.839,10.839 0 0 1 -10.829,10.829l-0.004,0.003z" data-name="Path 71" id="Path_71"/>
    <g data-name="Group 1058" id="Group_1058">
     <g data-name="Group 1057" id="Group_1057">
      <path stroke="#fff" fill="#fff" d="m89.16301,14.07l-1.853,0a7.406,7.406 0 0 0 -0.506,-1.217l1.311,-1.312a0.751,0.751 0 0 0 0,-1.063l-2.125,-2.125a0.751,0.751 0 0 0 -1.063,0l-1.311,1.311a7.44,7.44 0 0 0 -1.217,-0.5l0,-1.858a0.751,0.751 0 0 0 -0.752,-0.751l-3.007,0a0.751,0.751 0 0 0 -0.752,0.751l0,1.854a7.443,7.443 0 0 0 -1.217,0.5l-1.311,-1.311a0.751,0.751 0 0 0 -1.063,0l-2.125,2.125a0.751,0.751 0 0 0 0,1.063l1.311,1.312a7.385,7.385 0 0 0 -0.506,1.216l-1.853,0a0.751,0.751 0 0 0 -0.751,0.751l0,3.006a0.751,0.751 0 0 0 0.751,0.751l1.853,0a7.419,7.419 0 0 0 0.506,1.217l-1.311,1.312a0.751,0.751 0 0 0 0,1.063l2.125,2.125a0.751,0.751 0 0 0 1.063,0l1.311,-1.311a7.435,7.435 0 0 0 1.217,0.5l0,1.853a0.751,0.751 0 0 0 0.752,0.752l3.006,0a0.751,0.751 0 0 0 0.752,-0.752l0,-1.843a7.449,7.449 0 0 0 1.217,-0.5l1.311,1.311a0.751,0.751 0 0 0 1.063,0l2.125,-2.125a0.751,0.751 0 0 0 0,-1.063l-1.311,-1.312a7.473,7.473 0 0 0 0.506,-1.217l1.853,0a0.751,0.751 0 0 0 0.751,-0.751l0,-3.011a0.751,0.751 0 0 0 -0.75,-0.751zm-0.752,3.006l-1.671,0a0.752,0.752 0 0 0 -0.733,0.585a5.994,5.994 0 0 1 -0.772,1.859a0.752,0.752 0 0 0 0.1,0.932l1.187,1.187l-1.063,1.063l-1.187,-1.187a0.752,0.752 0 0 0 -0.932,-0.1a5.965,5.965 0 0 1 -1.859,0.772a0.751,0.751 0 0 0 -0.586,0.733l0,1.676l-1.5,0l0,-1.681a0.751,0.751 0 0 0 -0.585,-0.733a5.965,5.965 0 0 1 -1.859,-0.772a0.751,0.751 0 0 0 -0.932,0.1l-1.187,1.187l-1.063,-1.063l1.187,-1.187a0.752,0.752 0 0 0 0.1,-0.932a5.979,5.979 0 0 1 -0.772,-1.859a0.753,0.753 0 0 0 -0.734,-0.585l-1.676,0l0,-1.501l1.676,0a0.752,0.752 0 0 0 0.733,-0.585a5.994,5.994 0 0 1 0.772,-1.859a0.752,0.752 0 0 0 -0.1,-0.932l-1.187,-1.187l1.063,-1.063l1.187,1.187a0.75,0.75 0 0 0 0.932,0.1a5.969,5.969 0 0 1 1.859,-0.772a0.751,0.751 0 0 0 0.585,-0.733l0,-1.668l1.5,0l0,1.676a0.751,0.751 0 0 0 0.585,0.733a5.968,5.968 0 0 1 1.859,0.772a0.752,0.752 0 0 0 0.932,-0.1l1.187,-1.187l1.063,1.063l-1.18,1.182a0.751,0.751 0 0 0 -0.1,0.932a5.988,5.988 0 0 1 0.772,1.859a0.752,0.752 0 0 0 0.728,0.582l1.676,0l-0.005,1.506z" data-name="Path 72" id="Path_72"/>
     </g>
    </g>
   </g>
   <rect x="1.5" y="1.5" stroke-width="3" stroke-miterlimit="10" stroke="#fff" fill="none" height="92.316" width="93.484" data-name="Rectangle 80" id="Rectangle_80"/>
  </g>
 </g>
</svg>