<svg width="96.413" height="95.537" xmlns="http://www.w3.org/2000/svg">

 <g>
  <title>Layer 1</title>
  <g data-name="Group 1168" id="Group_1168">
   <path fill="#fff" d="m66.522,40.11801a18.955,18.955 0 0 1 -0.172,-16.715a1.612,1.612 0 0 0 -1.454,-2.309l-6.843,0a3.477,3.477 0 0 0 -2.856,1.5l-2.2,3.18a6.018,6.018 0 0 1 -5.009,2.622l0,0a6.018,6.018 0 0 1 -5.009,-2.624l-2.2,-3.177a3.477,3.477 0 0 0 -2.857,-1.5l-6.88,0a1.612,1.612 0 0 0 -1.487,2.235l0.4,0.961a19.034,19.034 0 0 1 -0.151,14.994l-0.511,1.154l0,20.619a3.548,3.548 0 0 0 2.527,3.383l0.641,0.19a54.562,54.562 0 0 0 31.035,0l0.641,-0.19a3.549,3.549 0 0 0 2.527,-3.383l0,-20.655l-0.142,-0.285zm-28.608,-16.335a0.788,0.788 0 0 1 0.647,0.339l2.2,3.177a8.786,8.786 0 0 0 7.219,3.781l0,0a8.787,8.787 0 0 0 7.219,-3.779l2.2,-3.18a0.788,0.788 0 0 1 0.647,-0.339l0.7,0c-1.454,4.476 -5.157,8.763 -10.667,8.763c-5.485,0 -9.394,-4.274 -10.725,-8.763l0.56,0.001zm26.064,21.268l-10.554,0a1.344,1.344 0 1 0 0,2.688l10.553,0l0,2.33l-10.553,0a1.344,1.344 0 1 0 0,2.688l10.553,0l0,2.442l-10.553,0a1.344,1.344 0 1 0 0,2.688l10.553,0l0,3.17a0.844,0.844 0 0 1 -0.6,0.805l-0.64,0.19a51.883,51.883 0 0 1 -29.51,0l-0.64,-0.19a0.844,0.844 0 0 1 -0.6,-0.805l0,-3.114l10.528,0a1.344,1.344 0 0 0 0,-2.688l-10.532,0l0,-2.442l10.528,0a1.344,1.344 0 0 0 0,-2.688l-10.528,0l0,-2.33l10.528,0a1.344,1.344 0 0 0 0,-2.688l-10.528,0l0,-4.1l0.281,-0.635a21.738,21.738 0 0 0 0.387,-16.59l1.927,0a16.185,16.185 0 0 0 4.106,7.416a12.975,12.975 0 0 0 9.4,4.035c7.224,0 11.917,-5.747 13.47,-11.452l1.705,0a21.639,21.639 0 0 0 0.716,17.255l0,4.014l0.003,0.001z" data-name="Path 51" id="Path_51"/>
   <g data-name="Group 1166" id="Group_1166">
    <path fill="#fff" d="m81.626,10.70701a2.1,2.1 0 0 0 -2.968,-1.936a28.057,28.057 0 0 1 -29.32,-3.368a2.1,2.1 0 0 0 -2.778,0a28.415,28.415 0 0 1 -29.257,3.452a2.1,2.1 0 0 0 -2.968,1.936c0,0.316 0.105,32.456 0,43.106c-0.063,5.788 13.323,24.521 32.54,35.928l0,0a2.1,2.1 0 0 0 2.1,0c19.259,-11.408 32.645,-30.14 32.645,-36.012c-0.099,-10.65 0.006,-42.769 0.006,-43.106zm-4.21,43.106c0,2.967 -10.524,20.079 -29.467,31.571c-18.8,-11.555 -29.467,-28.667 -29.467,-31.571c0.147,-8.588 0,-31.572 0,-39.991a32.224,32.224 0 0 0 29.467,-4.21a32.224,32.224 0 0 0 29.467,4.21l0,39.991z" data-name="Path 52" id="Path_52"/>
    <rect x="1.5" y="1.5" stroke-width="3" stroke-miterlimit="10" stroke="#fff" fill="none" height="92.537" width="93.413" data-name="Rectangle 76" id="Rectangle_76"/>
   </g>
  </g>
 </g>
</svg>