<?xml version="1.0" standalone="no"?>
<!DOCTYPE svg PUBLIC "-//W3C//DTD SVG 20010904//EN"
 "http://www.w3.org/TR/2001/REC-SVG-20010904/DTD/svg10.dtd">
<svg version="1.0" xmlns="http://www.w3.org/2000/svg"
 width="402.000000pt" height="397.000000pt" viewBox="0 0 402.000000 397.000000"
 preserveAspectRatio="xMidYMid meet">

<g transform="translate(0.000000,397.000000) scale(0.100000,-0.100000)"
fill="#fff" stroke="#fff">
<path d="M0 1985 l0 -1985 2010 0 2010 0 0 1985 0 1985 -2010 0 -2010 0 0
-1985z m3890 0 l0 -1855 -1880 0 -1880 0 0 1855 0 1855 1880 0 1880 0 0 -1855z"/>
<path d="M2610 3626 c-121 -35 -258 -146 -309 -250 -71 -145 -68 -334 7 -466
15 -25 75 -112 135 -193 122 -167 147 -212 171 -312 10 -38 27 -80 39 -93 31
-33 88 -46 129 -29 50 21 68 48 88 131 11 41 26 89 35 105 28 55 11 96 -36 89
-32 -5 -55 -43 -82 -136 -13 -45 -29 -88 -35 -94 -19 -19 -37 8 -51 74 -18 84
-58 156 -181 323 -61 83 -122 173 -135 200 -75 153 -46 330 75 453 219 223
604 110 669 -196 25 -121 4 -210 -77 -330 -114 -167 -115 -168 -103 -191 8
-14 21 -21 41 -21 25 0 38 12 95 88 85 114 122 190 142 290 15 75 15 89 0 163
-32 164 -126 288 -274 361 -80 40 -88 42 -191 44 -67 2 -124 -1 -152 -10z"/>
<path d="M2677 3440 c-204 -51 -296 -281 -182 -456 126 -194 421 -168 519 45
30 66 29 180 -2 242 -62 126 -209 200 -335 169z m150 -114 c155 -73 150 -294
-9 -361 -162 -67 -330 99 -260 257 23 54 53 84 107 109 54 25 100 24 162 -5z"/>
<path d="M1080 2844 c-85 -30 -213 -75 -285 -100 -401 -140 -415 -145 -430
-175 -13 -24 -15 -180 -15 -1083 0 -768 3 -1062 11 -1080 7 -14 27 -32 46 -41
38 -18 -11 -33 657 199 l188 66 362 -145 c199 -80 371 -145 383 -145 11 0 183
65 382 145 l361 144 128 -43 c70 -24 246 -85 392 -136 146 -51 277 -93 292
-93 40 -1 76 28 87 70 15 53 15 2064 0 2116 -6 24 -21 44 -39 55 -15 9 -114
46 -220 82 l-191 65 -20 -24 c-10 -13 -19 -26 -19 -30 0 -24 38 -46 140 -81
63 -22 148 -52 188 -66 l72 -26 -2 -1032 c-2 -680 -6 -1030 -13 -1029 -19 4
-724 251 -734 258 -16 9 -14 95 2 95 6 0 71 -21 142 -46 72 -25 186 -65 255
-89 69 -23 138 -48 153 -54 42 -17 75 -13 87 8 7 13 10 317 10 914 0 756 -2
896 -14 906 -8 7 -90 38 -183 70 -173 60 -202 64 -217 25 -14 -37 18 -58 168
-109 l146 -50 0 -402 c0 -222 -1 -403 -3 -403 -1 0 -81 27 -177 61 -205 71
-374 129 -377 129 -2 0 -3 85 -3 188 0 133 -4 192 -12 200 -16 16 -65 15 -75
0 -4 -7 -10 -98 -13 -201 l-5 -188 -310 -124 c-170 -69 -313 -125 -317 -125
-5 0 -8 180 -8 400 0 373 1 401 18 406 70 22 358 141 375 154 15 13 18 23 13
43 -11 46 -40 43 -191 -18 -77 -31 -157 -63 -177 -70 l-38 -14 0 52 0 52 125
49 c69 27 134 56 145 63 35 24 20 83 -20 83 -9 0 -79 -25 -155 -55 -77 -30
-144 -55 -149 -55 -5 0 -173 65 -372 145 -199 80 -368 145 -376 144 -7 0 -83
-25 -168 -55z m120 -113 c0 -56 29 -39 -235 -131 -317 -111 -399 -141 -412
-151 -20 -17 -19 -1796 1 -1824 21 -29 21 -29 489 136 76 27 143 49 148 49 5
0 9 -20 9 -45 0 -52 4 -49 -140 -98 -58 -20 -215 -74 -350 -121 -135 -47 -248
-86 -252 -86 -5 0 -8 463 -8 1029 l0 1029 83 30 c45 16 143 51 217 76 74 26
203 71 285 100 83 30 153 54 158 55 4 0 7 -21 7 -48z m435 -85 l310 -124 3
-42 c2 -24 0 -46 -5 -50 -4 -4 -150 49 -323 119 l-315 126 -3 54 c-2 41 0 52
10 48 7 -3 153 -62 323 -131z m-435 -472 l0 -395 -32 -13 c-18 -8 -43 -17 -56
-21 l-22 -6 2 398 3 397 45 18 c25 9 48 17 53 17 4 1 7 -177 7 -395z m420 271
c162 -64 302 -120 310 -124 13 -7 15 -64 18 -405 1 -218 -1 -396 -5 -396 -5 0
-151 57 -325 126 l-318 127 0 400 c0 315 3 398 13 394 6 -3 145 -58 307 -122z
m-630 -366 c0 -271 4 -427 10 -440 14 -25 49 -24 133 5 l67 24 0 -64 c0 -61
-1 -65 -27 -75 -78 -31 -510 -179 -521 -179 -10 0 -12 16 -10 63 l3 62 104 36
c57 19 110 44 117 54 11 15 14 75 14 281 0 242 -1 264 -19 285 -16 20 -23 22
-47 14 l-29 -10 -5 -254 -5 -253 -45 -18 c-25 -9 -55 -21 -68 -24 l-22 -7 2
401 3 402 65 24 c36 13 66 24 68 24 1 0 2 -33 2 -73 0 -80 9 -97 52 -97 38 0
48 24 48 123 l0 83 48 16 c26 9 50 17 55 17 4 1 7 -188 7 -420z m2202 -550
l158 -54 0 -67 0 -66 -86 30 c-101 36 -134 30 -134 -22 0 -35 15 -44 138 -84
l82 -28 0 -254 c0 -140 -2 -254 -4 -254 -2 0 -64 21 -137 46 -74 26 -197 68
-274 95 l-140 48 -3 255 c-1 141 0 256 3 256 2 0 41 -13 87 -30 113 -41 148
-38 148 16 0 31 -17 42 -132 83 l-103 37 -3 54 c-2 29 -1 58 2 65 3 10 36 2
123 -29 65 -24 189 -67 275 -97z m-1559 5 l317 -127 0 -63 c0 -35 -2 -64 -5
-64 -7 0 -604 239 -626 250 -15 9 -19 22 -19 70 0 33 3 60 8 60 4 0 150 -57
325 -126z m1057 63 l0 -63 -72 -28 c-40 -15 -83 -34 -95 -42 l-23 -14 0 -300
0 -300 -52 -24 c-29 -13 -56 -21 -60 -19 -5 2 -8 126 -8 275 0 239 -2 274 -17
290 -9 10 -21 18 -28 18 -7 0 -72 -25 -146 -55 -74 -30 -135 -55 -136 -55 -2
0 -3 29 -3 64 l0 64 63 26 c123 51 562 225 570 226 4 0 7 -28 7 -63z m-1490
-422 c0 -196 -3 -257 -12 -260 -29 -9 -263 -90 -392 -136 -76 -27 -142 -49
-147 -49 -5 0 -9 114 -9 253 l0 253 138 48 c75 27 198 70 272 97 74 26 138 48
143 48 4 1 7 -114 7 -254z m460 111 l285 -113 3 -253 c2 -237 1 -252 -15 -247
-10 2 -148 56 -308 119 -159 64 -298 118 -307 121 -17 6 -18 27 -18 262 l0
255 38 -15 c20 -8 165 -66 322 -129z m1030 -111 l0 -255 -25 -10 c-14 -5 -37
-13 -51 -16 l-24 -6 2 248 3 249 45 22 c25 12 46 22 48 23 1 0 2 -115 2 -255z
m-412 -167 l-3 -252 -105 -42 c-58 -23 -108 -43 -112 -43 -5 -1 -8 113 -8 252
l0 252 103 41 c56 23 108 42 115 43 10 1 12 -52 10 -251z m-656 -319 c166 -66
309 -125 316 -131 6 -6 12 -31 12 -55 0 -39 -2 -44 -17 -39 -10 4 -156 62
-325 129 l-308 122 0 47 c0 27 4 48 9 48 5 0 146 -54 313 -121z m1068 73 l0
-48 -311 -124 c-172 -69 -316 -127 -321 -129 -5 -1 -8 20 -6 49 l3 52 305 123
c168 68 311 124 318 124 8 1 12 -15 12 -47z"/>
<path d="M1565 2263 c-52 -27 -85 -65 -100 -115 -24 -82 9 -157 93 -209 20
-12 24 -24 26 -65 1 -58 18 -84 51 -84 33 0 49 26 51 83 2 47 5 53 40 76 70
48 96 111 80 195 -19 100 -153 166 -241 119z m117 -97 c61 -46 29 -145 -47
-145 -37 0 -61 17 -74 52 -12 31 0 73 27 93 22 17 72 17 94 0z"/>
</g>
</svg>
