<svg width="40" height="40" xmlns="http://www.w3.org/2000/svg" data-name="Component 20 – 2">

 <g>
  <title>Layer 1</title>
  <g data-name="Group 1011" id="Group_1011">
   <path fill="#f2f2f2" d="m33.49073,34.14511l-27.64,0a1.655,1.655 0 0 1 -1.646,-1.54l-1.033,-15.472a0.549,0.549 0 0 1 0.55,-0.586l31.9,0a0.55,0.55 0 0 1 0.55,0.586l-1.033,15.472a1.655,1.655 0 0 1 -1.648,1.54zm-29.181,-16.5l0.99,14.885a0.55,0.55 0 0 0 0.55,0.514l27.641,0a0.55,0.55 0 0 0 0.55,-0.514l0.989,-14.885l-30.72,0z" data-name="Path 22" id="Path_22"/>
   <path fill="#f2f2f2" d="m30.91973,30.84311l-22.5,0a1.1,1.1 0 0 1 -1.1,-1.027l-0.579,-8.801a1.1,1.1 0 0 1 1.1,-1.173l8.534,0a0.55,0.55 0 0 1 0,1.1l-8.536,0l0.586,8.8l22.5,0l0.586,-8.8l-8.54,0a0.55,0.55 0 1 1 0,-1.1l8.536,0a1.1,1.1 0 0 1 1.1,1.173l-0.587,8.8a1.1,1.1 0 0 1 -1.1,1.028z" data-name="Path 23" id="Path_23"/>
   <path fill="#f2f2f2" d="m35.61973,17.64011l-31.9,0a0.55,0.55 0 0 1 -0.55,-0.55l0,-3.3a6.607,6.607 0 0 1 6.6,-6.6l19.8,0a6.607,6.607 0 0 1 6.6,6.6l0,3.3a0.55,0.55 0 0 1 -0.55,0.55zm-31.348,-1.1l30.8,0l0,-2.75a5.505,5.505 0 0 0 -5.5,-5.5l-19.8,0a5.505,5.505 0 0 0 -5.5,5.5l0,2.75z" data-name="Path 24" id="Path_24"/>
   <path fill="#f2f2f2" d="m32.86873,17.64011l-26.4,0a0.55,0.55 0 0 1 -0.55,-0.55l0,-2.75a7.158,7.158 0 0 1 7.15,-7.149l13.2,0a7.157,7.157 0 0 1 7.149,7.149l0,2.75a0.55,0.55 0 0 1 -0.55,0.55l0.001,0zm-25.848,-1.1l25.3,0l0,-2.2a6.057,6.057 0 0 0 -6.05,-6.049l-13.2,0a6.056,6.056 0 0 0 -6.05,6.049l0,2.2z" data-name="Path 25" id="Path_25"/>
   <path fill="#f2f2f2" d="m19.67073,25.34511a3.854,3.854 0 0 1 -3.85,-3.85l0,-4.4a0.55,0.55 0 0 1 0.55,-0.55l6.6,0a0.55,0.55 0 0 1 0.55,0.55l0,4.4a3.854,3.854 0 0 1 -3.85,3.85zm-2.75,-7.7l0,3.85a2.75,2.75 0 0 0 5.5,0l0,-3.85l-5.5,0z" data-name="Path 26" id="Path_26"/>
   <path fill="#f2f2f2" d="m19.67071,22.04411a1.65,1.65 0 1 1 1.65,-1.65a1.65,1.65 0 0 1 -1.65,1.65zm0,-2.2a0.55,0.55 0 1 0 0.55,0.55a0.55,0.55 0 0 0 -0.55,-0.55z" data-name="Path 27" id="Path_27"/>
   <path fill="#f2f2f2" d="m32.77573,13.79511l-26.212,0a0.55,0.55 0 0 1 0,-1.1l26.211,0a0.55,0.55 0 1 1 0,1.1l0.001,0z" data-name="Path 28" id="Path_28"/>
   <path fill="#f2f2f2" d="m31.19172,10.49511l-23.043,0a0.55,0.55 0 1 1 0,-1.1l23.043,0a0.55,0.55 0 1 1 0,1.1z" data-name="Path 29" id="Path_29"/>
   <path fill="#f2f2f2" d="m19.67074,23.14411a0.55,0.55 0 0 1 -0.55,-0.55l0,-1.1a0.55,0.55 0 1 1 1.1,0l0,1.1a0.55,0.55 0 0 1 -0.55,0.55z" data-name="Path 30" id="Path_30"/>
   <path fill="#f2f2f2" d="m31.87372,24.2441l-9.751,0a0.55,0.55 0 1 1 0,-1.1l9.751,0a0.55,0.55 0 1 1 0,1.1z" data-name="Path 31" id="Path_31"/>
   <path fill="#f2f2f2" d="m17.21773,24.2441l-9.751,0a0.55,0.55 0 1 1 0,-1.1l9.751,0a0.55,0.55 0 0 1 0,1.1z" data-name="Path 32" id="Path_32"/>
   <path fill="#f2f2f2" d="m31.64973,27.54312l-23.963,0a0.55,0.55 0 0 1 0,-1.1l23.963,0a0.55,0.55 0 0 1 0,1.1z" data-name="Path 33" id="Path_33"/>
  </g>
 </g>
</svg>