<svg width="96.623" height="95.745" xmlns="http://www.w3.org/2000/svg">

 <g>
  <title>Layer 1</title>
  <g data-name="Group 1169" id="Group_1169">
   <rect x="1.5" y="1.5" stroke-width="3" stroke-miterlimit="10" stroke="#fff" fill="none" height="92.745" width="93.623" data-name="Rectangle 82" id="Rectangle_82"/>
   <path stroke="#fff" fill="#fff" d="m19.543,22.719l0,-1.177a0.7,0.7 0 1 0 -1.4,0l0,1.175l-1.424,0l0,10.736a0.706,0.706 0 0 0 0.705,0.706l64.748,0a0.706,0.706 0 0 0 0.707,-0.706l0,-10.734l-63.336,0zm35.89,3.507l-23.436,0a1.1,1.1 0 0 1 0,-2.191l23.441,0a1.1,1.1 0 0 1 0,2.191l-0.005,0zm34.573,-2.68l-0.329,0a1.092,1.092 0 0 0 -1.052,-0.827l-1.723,0l0,-0.427a1.508,1.508 0 0 0 -3.015,0l0,0.427l-0.316,0l0,10.423a2.007,2.007 0 0 1 -2.007,2.007l-63.534,0a2.007,2.007 0 0 1 -2.006,-2.007l0,-10.423l-2.627,0a1.11,1.11 0 0 0 -1.109,1.109l0,13.67a1.11,1.11 0 0 0 1.109,1.109c12.907,5.485 -6.014,25.107 -6.014,36.329c0,0.64 0.167,1.109 0.781,1.109l21.3,0a1.609,1.609 0 0 0 1.438,-1.109l7.86,-26.528a5.24,5.24 0 0 0 4.952,3.559l12.049,0a5.259,5.259 0 0 0 5.258,-5.258l0,-8c0,-0.036 -0.011,-0.07 -0.011,-0.105l27.617,0a1.11,1.11 0 0 0 1.109,-1.109l0,-4.851l0.271,0a0.635,0.635 0 0 0 0.635,-0.635l0,-7.831a0.635,0.635 0 0 0 -0.635,-0.636l-0.001,0.004zm-30.3,23.164a3.947,3.947 0 0 1 -3.943,3.944l-12.05,0a3.948,3.948 0 0 1 -3.943,-3.944l0,-1.706l1.45,-4.9a11.157,11.157 0 0 0 6.8,7.99c1.542,0.622 3.2,0.107 2.477,-0.636a10.758,10.758 0 0 1 -2.525,-7.825l-18.022,0c-2.28,0 -5.283,1.848 -6.707,4.129l-4.408,7.06l3.316,-8.091a6.924,6.924 0 0 1 5.821,-4.129l28.113,0c0.014,0 0.026,0 0.04,0l3.57,0c0,0.036 0.011,0.069 0.011,0.105l0,8.003z" data-name="Path 95" id="Path_95"/>
  </g>
 </g>
</svg>