<svg width="96.16" height="95.287" xmlns="http://www.w3.org/2000/svg">

 <g>
  <title>Layer 1</title>
  <g data-name="Group 1172" id="Group_1172">
   <g data-name="Group 1089" id="Group_1089">
    <rect x="1.5" y="1.4999" stroke-width="3" stroke-miterlimit="10" stroke="#fff" fill="none" height="92.287" width="93.16" data-name="Rectangle 83" id="Rectangle_83"/>
    <g data-name="Group 1084" id="Group_1084">
     <g data-name="Group 1083" id="Group_1083">
      <path stroke="#fff" fill="#fff" d="m24.4,39.67991a1.333,1.333 0 1 0 1.333,1.333a1.334,1.334 0 0 0 -1.333,-1.333z" data-name="Path 96" id="Path_96"/>
     </g>
    </g>
    <g data-name="Group 1086" id="Group_1086">
     <g data-name="Group 1085" id="Group_1085">
      <path stroke="#fff" fill="#fff" d="m36.39698,64.6069l-4,0l0,-4a1.333,1.333 0 1 0 -2.666,0l0,4l-4,0a1.333,1.333 0 1 0 0,2.666l4,0l0,4a1.333,1.333 0 0 0 2.666,0l0,-4l4,0a1.333,1.333 0 1 0 0,-2.666z" data-name="Path 97" id="Path_97"/>
     </g>
    </g>
    <g data-name="Group 1088" id="Group_1088">
     <g data-name="Group 1087" id="Group_1087">
      <path stroke="#fff" fill="#fff" d="m72.373,65.8069a10.658,10.658 0 0 0 -14.567,-3.9l-5.415,3.126l0,-11.579a6.713,6.713 0 0 0 -1.333,-4l-6.665,-8.886l0,-3.783a4.005,4.005 0 0 0 2.666,-3.77l0,-6.132a4,4 0 0 0 -4,-4l-23.991,0a4,4 0 0 0 -4,4l0,6.132a4.006,4.006 0 0 0 2.666,3.77l0,3.784l-6.665,8.887a6.712,6.712 0 0 0 -1.332,4l0,25.816a6.672,6.672 0 0 0 6.665,6.665l21.422,0a10.653,10.653 0 0 0 14.485,3.77l16.162,-9.331a10.672,10.672 0 0 0 3.902,-14.569zm-54.639,-38.923a1.335,1.335 0 0 1 1.333,-1.333l23.994,0a1.335,1.335 0 0 1 1.333,1.333l0,6.132a1.334,1.334 0 0 1 -1.333,1.333l-23.993,0a1.334,1.334 0 0 1 -1.333,-1.333l0,-6.132l-0.001,0zm-4.531,24.171l6.931,-9.242a1.333,1.333 0 0 0 0.267,-0.8l0,-4l21.328,0l0,2.666l-12,0a1.333,1.333 0 0 0 0,2.666l12.663,0l6.531,8.708a4.034,4.034 0 0 1 0.772,1.956l-37.264,0a4.032,4.032 0 0 1 0.772,-1.954zm3.2,32.214a4,4 0 0 1 -4,-4l0,-1.344l24.218,0a10.681,10.681 0 0 0 0.064,5.345l-20.283,0l0.001,-0.001zm21.265,-8l-25.265,0l0,-19.6l37.324,0l0,10.893l-8.081,4.666a10.584,10.584 0 0 0 -3.979,4.043l0.001,-0.002zm13.31,12.125a8,8 0 1 1 -8,-13.853l7.235,-4.177l8,13.852l-7.235,4.178zm16.161,-9.331l-6.617,3.82l-8,-13.853l6.617,-3.82a8,8 0 1 1 8,13.852l0,0.001z" data-name="Path 98" id="Path_98"/>
     </g>
    </g>
    <path stroke="#fff" fill="#fff" d="m90.29301,33.22991l-5.686,0a9.677,9.677 0 0 0 -9.666,9.666l0,5.425a87.992,87.992 0 0 0 -0.984,10.064c-0.581,-0.967 -1.08,-1.714 -1.29,-2.019l0,-5.513a9.677,9.677 0 0 0 -9.666,-9.666l-5.683,0a0.569,0.569 0 0 0 -0.569,0.569a15.367,15.367 0 0 0 15.046,15.344c0.366,0.543 1.3,1.966 2.144,3.55a15.957,15.957 0 0 0 1.066,6.382a0.569,0.569 0 0 0 1.013,-0.516a14.889,14.889 0 0 1 -0.948,-5.939a0.577,0.577 0 0 0 0,-0.148a81.971,81.971 0 0 1 0.9,-11.292a15.368,15.368 0 0 0 14.892,-15.34a0.569,0.569 0 0 0 -0.569,-0.567zm-32.4,9.1l5.106,0a8.538,8.538 0 0 1 8.529,8.529l0,3.268a22.8,22.8 0 0 0 -2.41,-3.445c-0.011,-0.014 -0.02,-0.028 -0.033,-0.04a24.976,24.976 0 0 0 -2.82,-2.82a0.505,0.505 0 0 0 -0.021,-0.073c-1.308,-2.491 -0.228,-3.161 -0.16,-3.2a0.569,0.569 0 0 0 -0.512,-1.015a2.09,2.09 0 0 0 -0.974,1.226a3.312,3.312 0 0 0 -0.038,1.726a20.279,20.279 0 0 0 -3.024,-1.833a0.569,0.569 0 0 0 -0.477,1.032a23.332,23.332 0 0 1 5.7,4.154c-2.685,-0.506 -3.614,0.82 -3.661,0.89a0.562,0.562 0 0 0 0.149,0.772a0.577,0.577 0 0 0 0.788,-0.129c0.01,-0.011 0.985,-1.222 4.269,0.13a21.255,21.255 0 0 1 2.9,4.435a14.232,14.232 0 0 1 -13.309,-13.61l-0.002,0.003zm18.417,5.66a20.677,20.677 0 0 1 2.849,-4.385c3.358,-1.433 4.378,-0.235 4.413,-0.189a0.569,0.569 0 0 0 0.938,-0.643c-0.047,-0.07 -1,-1.428 -3.769,-0.865a23.359,23.359 0 0 1 5.805,-4.176a0.569,0.569 0 1 0 -0.469,-1.036a20.326,20.326 0 0 0 -3.019,1.795a3.3,3.3 0 0 0 -0.045,-1.687a2.091,2.091 0 0 0 -0.974,-1.226a0.57,0.57 0 0 0 -0.5,1.023a1.029,1.029 0 0 1 0.394,0.558a3.5,3.5 0 0 1 -0.563,2.632a23.527,23.527 0 0 0 -5.292,6.2l0,-3.1a8.538,8.538 0 0 1 8.529,-8.529l5.106,0a14.232,14.232 0 0 1 -13.401,13.625l-0.002,0.003z" data-name="Path 99" id="Path_99"/>
    <path stroke="#fff" fill="#fff" d="m88.68898,4.99291a0.528,0.528 0 0 0 -0.437,-0.232l0,0a0.528,0.528 0 0 0 -0.437,0.232c-0.069,0.1 -1.689,2.493 -2.107,3.38a4.221,4.221 0 0 0 -0.491,1.842a3.034,3.034 0 0 0 6.068,0a4.02,4.02 0 0 0 -0.491,-1.844c-0.422,-0.893 -2.033,-3.277 -2.105,-3.378zm-0.437,7.2a1.98,1.98 0 0 1 -1.978,-1.977a3.255,3.255 0 0 1 0.39,-1.393c0.257,-0.546 1.074,-1.806 1.588,-2.583c0.513,0.776 1.328,2.034 1.589,2.584a3,3 0 0 1 0.39,1.392a1.98,1.98 0 0 1 -1.979,1.976l0,0.001z" data-name="Path 100" id="Path_100"/>
    <path stroke="#fff" fill="#fff" d="m52.23798,44.13091a1.624,1.624 0 1 0 2.326,-2.267l-0.029,-0.029l-1.177,-1.177l3.5,-3.5l2.517,2.517a1.726,1.726 0 0 0 2.441,-2.441l-0.191,-0.191l15.338,-15.338a1.915,1.915 0 0 0 0.179,-2.5l2,-2a1.59,1.59 0 0 0 0.292,-1.842l2.54,-2.539a2.175,2.175 0 0 0 0.326,-2.651l5.646,-5.646a0.528,0.528 0 0 0 -0.747,-0.747l0,0l-5.643,5.644a2.175,2.175 0 0 0 -2.654,0.328l-2.539,2.539a1.59,1.59 0 0 0 -1.842,0.292l-2,2a1.915,1.915 0 0 0 -2.5,0.179l-15.34,15.327l-0.191,-0.191l0,0a1.726,1.726 0 1 0 -2.441,2.441l2.517,2.517l-3.5,3.5l-1.177,-1.177a1.624,1.624 0 0 0 -2.3,2.3l4.649,4.652zm27.409,-33.639a1.116,1.116 0 0 1 1.579,1.579l-2.484,2.483l-1.579,-1.579l2.484,-2.483zm-4.381,2.831a0.533,0.533 0 0 1 0.752,0l2.377,2.377a0.532,0.532 0 0 1 0,0.752l-1.981,1.98l-3.129,-3.127l1.981,-1.982zm-4.5,2.175a0.863,0.863 0 0 1 1.22,0l0,0l4.234,4.234a0.863,0.863 0 0 1 0,1.22l0,0l-1.374,1.374l-1.952,-1.952a0.528,0.528 0 0 0 -0.747,0.746l1.952,1.952l-1.139,1.14l-0.79,-0.789a0.528,0.528 0 1 0 -0.747,0.747l0.789,0.789l-1.14,1.14l-1.952,-1.952a0.528,0.528 0 0 0 -0.747,0.747l1.952,1.952l-1.14,1.14l-0.789,-0.789a0.528,0.528 0 1 0 -0.747,0.747l0.789,0.789l-1.139,1.14l-1.952,-1.952a0.528,0.528 0 1 0 -0.747,0.747l1.952,1.952l-1.139,1.14l-0.789,-0.789a0.528,0.528 0 1 0 -0.747,0.747l0.789,0.789l-1.14,1.14l-1.952,-1.952a0.528,0.528 0 0 0 -0.747,0.747l1.952,1.952l-1.9,1.9l-5.455,-5.455l15.342,-15.341zm-17.97,16.095a0.67,0.67 0 0 1 0.948,-0.948l0,0l7.331,7.33a0.67,0.67 0 1 1 -0.948,0.947l-7.331,-7.329zm2.517,4.01l0.8,0.8l-3.5,3.5l-0.8,-0.8l3.5,-3.5zm-6.978,2.327a0.569,0.569 0 0 1 0.8,0l4.651,4.651a0.568,0.568 0 0 1 -0.791,0.816l-0.012,-0.012l-4.651,-4.651a0.568,0.568 0 0 1 0,-0.8l0.003,-0.004z" data-name="Path 101" id="Path_101"/>
    <path stroke="#fff" fill="#1a1818" d="m71.21201,17.5349a0.572,0.572 0 1 0 -0.4,-0.976l0,0a0.572,0.572 0 0 0 0.4,0.976z" data-name="Path 102" id="Path_102"/>
    <path stroke="#fff" fill="#1a1818" d="m64.06901,24.69491a0.527,0.527 0 0 0 0.373,-0.155l6.084,-6.084a0.528,0.528 0 1 0 -0.747,-0.747l-6.084,6.084a0.528,0.528 0 0 0 0.373,0.9l0.001,0.002z" data-name="Path 103" id="Path_103"/>
   </g>
  </g>
 </g>
</svg>