<svg width="95" height="94.137" xmlns="http://www.w3.org/2000/svg">

 <g>
  <title>Layer 1</title>
  <g data-name="Group 1173" id="Group_1173">
   <g data-name="Group 1094" id="Group_1094">
    <rect x="1.5" y="1.49997" stroke-width="3" stroke-miterlimit="10" stroke="#fff" fill="rgba(0,0,0,0)" height="91.137" width="92" data-name="Rectangle 84" id="Rectangle_84"/>
    <g data-name="Group 1092" id="Group_1092">
     <path fill="#fff" d="m52.986,29.03598a2.214,2.214 0 0 0 -2.52,1.454l-2.521,-1.1c0.005,-0.173 0.008,-0.343 0.008,-0.508a17.609,17.609 0 0 0 -0.552,-4.38l1.131,-0.767a2.519,2.519 0 0 0 4.009,-2.814l-0.532,-1.429a2.535,2.535 0 0 0 -3.161,-1.555a2.525,2.525 0 0 0 -1.736,2.391l-1.283,0.179c-0.176,-0.322 -0.368,-0.649 -0.573,-0.974a0.72,0.72 0 0 0 -1.218,0.768c0.242,0.384 0.464,0.769 0.659,1.144a1.006,1.006 0 0 0 1.028,0.531l2.314,-0.323a0.72,0.72 0 0 0 0.578,-0.956a1.079,1.079 0 0 1 0.68,-1.391a1.112,1.112 0 0 1 1.362,0.689l0.533,1.429a1.118,1.118 0 0 1 -0.563,1.41a1.084,1.084 0 0 1 -1.354,-0.428a0.72,0.72 0 0 0 -1.02,-0.223l-1.919,1.3a1,1 0 0 0 -0.4,1.1a16.155,16.155 0 0 1 0.58,4.3c0,0.239 -0.006,0.489 -0.018,0.742a1.009,1.009 0 0 0 0.6,0.967l3.6,1.571a0.72,0.72 0 0 0 0.995,-0.521l0.114,-0.581a0.773,0.773 0 1 1 1.516,0.3l-0.59,3.007a0.773,0.773 0 0 1 -0.944,0.6a0.8,0.8 0 0 1 -0.564,-0.94l0.016,-0.08a0.72,0.72 0 0 0 -0.74,-0.858l-3.892,0.177a1.01,1.01 0 0 0 -0.907,0.688a16.065,16.065 0 0 1 -1.422,3.126a1,1 0 0 0 0.095,1.158l1.722,2.045a0.72,0.72 0 0 0 1.047,0.058a1.077,1.077 0 0 1 1.6,1.436l-0.5,0.652a1.113,1.113 0 0 1 -1.492,0.269a1.083,1.083 0 0 1 -0.41,-1.233a0.72,0.72 0 0 0 -0.393,-0.889l-2.48,-1.089a1,1 0 0 0 -1.146,0.244a16.169,16.169 0 0 1 -3.8,3.075a1.01,1.01 0 0 0 -0.485,1.029l0.635,3.872a0.72,0.72 0 0 0 0.978,0.552l0.549,-0.22a0.773,0.773 0 0 1 1.018,0.466a0.8,0.8 0 0 1 -0.483,0.984l-2.806,1.122a0.773,0.773 0 0 1 -1.018,-0.466a0.8,0.8 0 0 1 0.483,-0.984l0.076,-0.03a0.72,0.72 0 0 0 0.319,-1.087l-2.264,-3.172a1.01,1.01 0 0 0 -1.069,-0.388a16.206,16.206 0 0 1 -7.29,0.19a1.011,1.011 0 0 0 -1.048,0.443l-2.266,3.553a0.72,0.72 0 0 0 0.361,1.064l0.08,0.029a1.1,1.1 0 0 1 0.654,1.405a0.719,0.719 0 0 0 -0.044,0.247a0.561,0.561 0 0 1 -0.849,0.594l-2.783,-1.015a1.1,1.1 0 0 1 -0.662,-1.385a1.062,1.062 0 0 1 0.557,-0.612a1.172,1.172 0 0 1 0.9,-0.046l0.064,0.023a0.72,0.72 0 0 0 0.962,-0.6l0.461,-4.164a1.009,1.009 0 0 0 -0.538,-1a16.122,16.122 0 0 1 -4.477,-3.418a1.007,1.007 0 0 0 -1.119,-0.25l-3.4,1.393a0.72,0.72 0 0 0 -0.362,1.006a0.875,0.875 0 0 1 -0.294,1.149a0.91,0.91 0 0 1 -1.232,-0.271l-0.87,-1.252a0.9,0.9 0 0 1 0.151,-1.228a0.879,0.879 0 0 1 1.247,0.159a0.72,0.72 0 0 0 1.114,0.043l2.392,-2.7a1.006,1.006 0 0 0 0.125,-1.152a16.088,16.088 0 0 1 -0.711,-1.452a0.72,0.72 0 0 0 -1.324,0.568c0.192,0.447 0.4,0.887 0.628,1.311l-1.71,1.933a2.324,2.324 0 0 0 -2.65,0.158a2.346,2.346 0 0 0 -0.442,3.181l0.87,1.252a2.358,2.358 0 0 0 3.206,0.652a2.309,2.309 0 0 0 1.024,-2.277l2.5,-1.027a17.553,17.553 0 0 0 4.4,3.361l-0.343,3.093a2.62,2.62 0 0 0 -1.2,0.253a2.491,2.491 0 0 0 -1.3,1.444a2.549,2.549 0 0 0 1.53,3.206l2.783,1.015a2.422,2.422 0 0 0 0.83,0.152a1.923,1.923 0 0 0 1.112,-0.339a2.066,2.066 0 0 0 0.838,-1.635a2.541,2.541 0 0 0 -0.86,-2.747l1.691,-2.652a17.722,17.722 0 0 0 7.353,-0.191l1.643,2.3a2.209,2.209 0 0 0 2.3,3.7l2.806,-1.122a2.232,2.232 0 0 0 1.309,-2.793a2.2,2.2 0 0 0 -1.172,-1.29a2.224,2.224 0 0 0 -1.455,-0.134l-0.445,-2.713a17.6,17.6 0 0 0 3.663,-2.965l1.676,0.736a2.517,2.517 0 0 0 4.538,1.639l0.5,-0.652a2.519,2.519 0 0 0 -3.1,-3.794l-1.1,-1.313a17.519,17.519 0 0 0 1.3,-2.854l2.825,-0.129a2.208,2.208 0 0 0 4.349,0.08l0.59,-3.007a2.216,2.216 0 0 0 -1.746,-2.6l-0.01,-0.002z" data-name="Path 104" id="Path_104"/>
     <path fill="#fff" d="m10.352,30.97998l2.7,0.623c0.059,0.375 0.131,0.757 0.217,1.137a0.72,0.72 0 0 0 1.405,-0.316c-0.1,-0.442 -0.18,-0.885 -0.239,-1.316a1.01,1.01 0 0 0 -0.768,-0.841l-3.823,-0.882a0.72,0.72 0 0 0 -0.882,0.7l0,0.448a0.92,0.92 0 0 1 -0.917,0.909a0.888,0.888 0 0 1 -0.888,-0.9l0.025,-2.777a0.968,0.968 0 0 1 0.3,-0.684a0.865,0.865 0 0 1 0.63,-0.253a0.907,0.907 0 0 1 0.877,0.907a0.72,0.72 0 0 0 0.884,0.705l3.8,-0.89a1.009,1.009 0 0 0 0.765,-0.844a15.947,15.947 0 0 1 2,-5.869a1.006,1.006 0 0 0 -0.1,-1.152l-1.81,-2.126a0.72,0.72 0 0 0 -1.123,0.032l-0.157,0.207a0.7,0.7 0 0 1 -1.013,0.115a0.733,0.733 0 0 1 -0.085,-1l1.194,-1.59a0.7,0.7 0 0 1 1.155,0.8a0.72,0.72 0 0 0 0.322,1.047l2.531,1.095a1,1 0 0 0 1.14,-0.246a16.156,16.156 0 0 1 3.971,-3.169a1.01,1.01 0 0 0 0.5,-1.022l-0.583,-3.88a0.72,0.72 0 0 0 -0.971,-0.565l-0.552,0.212a0.773,0.773 0 0 1 -1.011,-0.48a0.8,0.8 0 0 1 0.5,-0.978l2.821,-1.085a0.773,0.773 0 0 1 1.012,0.48a0.8,0.8 0 0 1 -0.5,0.978l-0.076,0.029a0.72,0.72 0 0 0 -0.333,1.083l2.221,3.2a1.009,1.009 0 0 0 1.063,0.4a16.2,16.2 0 0 1 3.849,-0.462l0,0a1.007,1.007 0 0 0 0.948,-0.666l0.735,-2.057a0.72,0.72 0 0 0 -0.463,-0.93a1.166,1.166 0 0 1 -0.81,-1.25a1.134,1.134 0 0 1 0.431,-0.755a1.24,1.24 0 0 1 0.912,-0.256l1.01,0.127a1.2,1.2 0 0 1 1.063,1.29a1.16,1.16 0 0 1 -0.866,1a0.72,0.72 0 0 0 -0.533,0.779l0.255,2.229a1,1 0 0 0 0.782,0.865a16,16 0 0 1 4.581,1.78a1.009,1.009 0 0 0 1.135,-0.089l3.046,-2.473a0.72,0.72 0 0 0 -0.006,-1.123l-0.463,-0.368a0.772,0.772 0 0 1 -0.1,-1.115a0.8,0.8 0 0 1 1.094,-0.069l2.367,1.879a0.773,0.773 0 0 1 0.1,1.115a0.8,0.8 0 0 1 -1.094,0.069l-0.064,-0.051a0.72,0.72 0 0 0 -1.1,0.263l-1.632,3.542a1.01,1.01 0 0 0 0.195,1.121c0.1,0.1 0.2,0.213 0.324,0.344a0.72,0.72 0 1 0 1.06,-0.975l-0.145,-0.157l1.185,-2.573a2.208,2.208 0 0 0 2.069,-3.826l-2.367,-1.879a2.231,2.231 0 0 0 -3.074,0.25a2.2,2.2 0 0 0 -0.538,1.658a2.225,2.225 0 0 0 0.605,1.329l-2.134,1.733a17.43,17.43 0 0 0 -4.427,-1.722l-0.158,-1.381a2.607,2.607 0 0 0 -0.977,-4.878l-1.01,-0.127a2.691,2.691 0 0 0 -1.979,0.551a2.563,2.563 0 0 0 -0.981,1.724a2.608,2.608 0 0 0 1.131,2.468l-0.417,1.167a17.639,17.639 0 0 0 -3.594,0.432l-1.612,-2.323a2.208,2.208 0 0 0 -2.243,-3.722l-2.82,1.085a2.231,2.231 0 0 0 -1.346,2.775a2.195,2.195 0 0 0 1.153,1.31a2.224,2.224 0 0 0 1.453,0.154l0.409,2.719a17.59,17.59 0 0 0 -3.849,3.068l-1.626,-0.7a2.156,2.156 0 0 0 -0.816,-2.08a2.144,2.144 0 0 0 -3,0.417l-1.206,1.594a2.161,2.161 0 0 0 0.312,2.971a2.126,2.126 0 0 0 1.618,0.484a2.151,2.151 0 0 0 1.021,-0.4l1.091,1.281a17.367,17.367 0 0 0 -1.988,5.83l-2.786,0.653a2.356,2.356 0 0 0 -2.12,-1.483a2.3,2.3 0 0 0 -1.669,0.656a2.419,2.419 0 0 0 -0.737,1.707l-0.025,2.777a2.328,2.328 0 0 0 2.331,2.352a2.366,2.366 0 0 0 2.312,-1.9l-0.004,0z" data-name="Path 105" id="Path_105"/>
     <path fill="#fff" d="m26.829,27.05198a0.72,0.72 0 1 0 -0.675,-1.272a3.7,3.7 0 0 1 -4.663,-0.574a3.1,3.1 0 0 1 -0.533,-2.605a4.958,4.958 0 0 1 4.783,-3.771a3.1,3.1 0 0 1 2.409,1.127a3.481,3.481 0 0 1 -0.027,3.987a0.72,0.72 0 0 0 1.228,0.753a4.9,4.9 0 0 0 -0.07,-5.632a4.512,4.512 0 0 0 -3.5,-1.675a6.395,6.395 0 0 0 -6.233,4.914a4.512,4.512 0 0 0 0.811,3.794a4.593,4.593 0 0 0 3.667,1.67a6,6 0 0 0 2.803,-0.716z" data-name="Path 106" id="Path_106"/>
     <path fill="#fff" d="m40.805,20.59197a3.125,3.125 0 1 0 -3.1,2.708a2.925,2.925 0 0 0 3.1,-2.708zm-4.754,0a1.717,1.717 0 1 1 1.657,1.267a1.5,1.5 0 0 1 -1.657,-1.267z" data-name="Path 107" id="Path_107"/>
     <path fill="#fff" d="m32.448,32.96799a3.318,3.318 0 1 0 -3.318,3.318a3.322,3.322 0 0 0 3.318,-3.318zm-5.2,0a1.878,1.878 0 1 1 1.878,1.878a1.88,1.88 0 0 1 -1.874,-1.878l-0.004,0z" data-name="Path 108" id="Path_108"/>
     <path fill="#fff" d="m41.836,31.61496a2.58,2.58 0 1 0 -2.58,2.58a2.583,2.583 0 0 0 2.58,-2.58zm-3.721,0a1.14,1.14 0 1 1 1.14,1.14a1.142,1.142 0 0 1 -1.14,-1.14z" data-name="Path 109" id="Path_109"/>
     <path fill="#fff" d="m32.386,43.22198a2.529,2.529 0 1 0 -2.529,-2.529a2.532,2.532 0 0 0 2.529,2.529zm0,-3.617a1.088,1.088 0 1 1 -1.089,1.089a1.09,1.09 0 0 1 1.089,-1.089z" data-name="Path 110" id="Path_110"/>
     <path fill="#fff" d="m21.06899,38.97097a2.6,2.6 0 1 0 -2.6,-2.6a2.607,2.607 0 0 0 2.6,2.6zm0,-3.768a1.164,1.164 0 1 1 -1.164,1.164a1.165,1.165 0 0 1 1.164,-1.164z" data-name="Path 111" id="Path_111"/>
     <path fill="#fff" d="m35.73301,27.35396a0.72,0.72 0 0 0 -0.72,-0.72l-0.637,0a0.72,0.72 0 1 0 0,1.44l0.637,0a0.72,0.72 0 0 0 0.72,-0.72z" data-name="Path 112" id="Path_112"/>
     <path fill="#fff" d="m25.878,40.66197l0.654,0a0.72,0.72 0 0 0 0,-1.44l-0.654,0a0.72,0.72 0 0 0 0,1.44z" data-name="Path 113" id="Path_113"/>
     <path fill="#fff" d="m19.81199,30.17498a0.72,0.72 0 0 0 0,-1.44l-0.63,0a0.72,0.72 0 0 0 0,1.44l0.63,0z" data-name="Path 114" id="Path_114"/>
     <path fill="#fff" d="m32.60499,17.57598a0.72,0.72 0 0 0 0,-1.44l-0.877,0a0.72,0.72 0 0 0 0,1.44l0.877,0z" data-name="Path 115" id="Path_115"/>
     <path fill="#fff" d="m37.39501,36.87797a0.72,0.72 0 0 0 0,1.44l0.968,0a0.72,0.72 0 1 0 0,-1.44l-0.968,0z" data-name="Path 116" id="Path_116"/>
    </g>
    <g data-name="Group 1093" id="Group_1093">
     <path fill="#fff" d="m87.163,66.80496a2.214,2.214 0 0 0 -2.52,1.454l-2.521,-1.1c0.005,-0.173 0.008,-0.342 0.008,-0.508a17.607,17.607 0 0 0 -0.552,-4.38l1.131,-0.767a2.519,2.519 0 0 0 4.009,-2.815l-0.534,-1.429a2.535,2.535 0 0 0 -3.161,-1.555a2.525,2.525 0 0 0 -1.736,2.391l-1.283,0.179c-0.176,-0.322 -0.368,-0.649 -0.573,-0.974a0.72,0.72 0 0 0 -1.218,0.768c0.242,0.384 0.464,0.769 0.659,1.144a1.006,1.006 0 0 0 1.028,0.531l2.314,-0.323a0.72,0.72 0 0 0 0.578,-0.956a1.079,1.079 0 0 1 0.68,-1.391a1.112,1.112 0 0 1 1.362,0.69l0.533,1.429a1.118,1.118 0 0 1 -0.563,1.41a1.084,1.084 0 0 1 -1.354,-0.428a0.72,0.72 0 0 0 -1.02,-0.222l-1.919,1.3a1,1 0 0 0 -0.4,1.1a16.153,16.153 0 0 1 0.581,4.3c0,0.239 -0.006,0.489 -0.018,0.742a1.009,1.009 0 0 0 0.6,0.967l3.6,1.571a0.72,0.72 0 0 0 0.995,-0.521l0.114,-0.581a0.773,0.773 0 0 1 1.516,0.3l-0.59,3.007a0.773,0.773 0 0 1 -0.944,0.6a0.8,0.8 0 0 1 -0.564,-0.94l0.016,-0.08a0.72,0.72 0 0 0 -0.74,-0.858l-3.892,0.177a1.01,1.01 0 0 0 -0.907,0.688a16.065,16.065 0 0 1 -1.422,3.126a1,1 0 0 0 0.095,1.158l1.722,2.045a0.72,0.72 0 0 0 1.047,0.058a1.077,1.077 0 0 1 1.6,1.436l-0.5,0.652a1.113,1.113 0 0 1 -1.492,0.269a1.083,1.083 0 0 1 -0.41,-1.233a0.72,0.72 0 0 0 -0.393,-0.889l-2.48,-1.089a1,1 0 0 0 -1.146,0.244a16.168,16.168 0 0 1 -3.8,3.075a1.01,1.01 0 0 0 -0.485,1.029l0.635,3.872a0.72,0.72 0 0 0 0.978,0.552l0.549,-0.22a0.773,0.773 0 0 1 1.018,0.466a0.8,0.8 0 0 1 -0.483,0.984l-2.806,1.122a0.773,0.773 0 0 1 -1.018,-0.466a0.8,0.8 0 0 1 0.483,-0.984l0.076,-0.03a0.72,0.72 0 0 0 0.319,-1.087l-2.264,-3.172a1.01,1.01 0 0 0 -1.069,-0.388a16.209,16.209 0 0 1 -7.29,0.19a1.011,1.011 0 0 0 -1.048,0.443l-2.266,3.554a0.72,0.72 0 0 0 0.36,1.064l0.08,0.029a1.1,1.1 0 0 1 0.654,1.405a0.718,0.718 0 0 0 -0.044,0.247a0.561,0.561 0 0 1 -0.849,0.594l-2.785,-1.021a1.1,1.1 0 0 1 -0.662,-1.385a1.062,1.062 0 0 1 0.557,-0.612a1.173,1.173 0 0 1 0.9,-0.046l0.064,0.023a0.72,0.72 0 0 0 0.962,-0.6l0.461,-4.164a1.01,1.01 0 0 0 -0.538,-1a16.123,16.123 0 0 1 -4.477,-3.418a1.007,1.007 0 0 0 -1.119,-0.25l-3.4,1.393a0.72,0.72 0 0 0 -0.362,1.006a0.875,0.875 0 0 1 -0.294,1.149a0.909,0.909 0 0 1 -1.232,-0.271l-0.87,-1.252a0.9,0.9 0 0 1 0.151,-1.228a0.879,0.879 0 0 1 1.247,0.16a0.72,0.72 0 0 0 1.114,0.043l2.392,-2.7a1.006,1.006 0 0 0 0.125,-1.152a16.059,16.059 0 0 1 -0.711,-1.452a0.72,0.72 0 0 0 -1.324,0.568c0.192,0.447 0.4,0.887 0.628,1.311l-1.714,1.937a2.325,2.325 0 0 0 -2.65,0.158a2.346,2.346 0 0 0 -0.442,3.18l0.87,1.252a2.358,2.358 0 0 0 3.206,0.652a2.308,2.308 0 0 0 1.023,-2.277l2.5,-1.027a17.559,17.559 0 0 0 4.4,3.361l-0.343,3.093a2.62,2.62 0 0 0 -1.2,0.253a2.491,2.491 0 0 0 -1.3,1.444a2.549,2.549 0 0 0 1.53,3.206l2.783,1.015a2.422,2.422 0 0 0 0.83,0.152a1.924,1.924 0 0 0 1.112,-0.339a2.066,2.066 0 0 0 0.838,-1.635a2.54,2.54 0 0 0 -0.86,-2.747l1.691,-2.652a17.725,17.725 0 0 0 7.353,-0.191l1.643,2.3a2.209,2.209 0 0 0 2.3,3.7l2.806,-1.122a2.232,2.232 0 0 0 1.309,-2.793a2.2,2.2 0 0 0 -1.172,-1.29a2.225,2.225 0 0 0 -1.455,-0.134l-0.43,-2.719a17.6,17.6 0 0 0 3.663,-2.965l1.676,0.736a2.517,2.517 0 0 0 4.538,1.639l0.5,-0.652a2.519,2.519 0 0 0 -3.1,-3.794l-1.1,-1.313a17.513,17.513 0 0 0 1.3,-2.855l2.824,-0.129a2.208,2.208 0 0 0 4.349,0.081l0.59,-3.007a2.215,2.215 0 0 0 -1.746,-2.6l-0.015,0.004z" data-name="Path 117" id="Path_117"/>
     <path fill="#fff" d="m44.52899,68.74998l2.7,0.623c0.059,0.375 0.131,0.756 0.217,1.137a0.72,0.72 0 0 0 1.405,-0.316c-0.1,-0.442 -0.18,-0.885 -0.239,-1.316a1.009,1.009 0 0 0 -0.768,-0.841l-3.823,-0.883a0.72,0.72 0 0 0 -0.882,0.7l0,0.447a0.92,0.92 0 0 1 -0.917,0.909a0.888,0.888 0 0 1 -0.888,-0.9l0.025,-2.777a0.969,0.969 0 0 1 0.3,-0.684a0.865,0.865 0 0 1 0.63,-0.253a0.907,0.907 0 0 1 0.877,0.907a0.72,0.72 0 0 0 0.884,0.7l3.8,-0.89a1.009,1.009 0 0 0 0.765,-0.844a15.946,15.946 0 0 1 2,-5.869a1.006,1.006 0 0 0 -0.1,-1.152l-1.81,-2.126a0.72,0.72 0 0 0 -1.123,0.032l-0.157,0.207a0.7,0.7 0 0 1 -1.013,0.115a0.733,0.733 0 0 1 -0.085,-1l1.206,-1.594a0.7,0.7 0 0 1 1.155,0.8a0.72,0.72 0 0 0 0.322,1.047l2.531,1.095a1,1 0 0 0 1.14,-0.245a16.154,16.154 0 0 1 3.971,-3.169a1.01,1.01 0 0 0 0.5,-1.022l-0.583,-3.88a0.72,0.72 0 0 0 -0.971,-0.565l-0.552,0.213a0.773,0.773 0 0 1 -1.011,-0.48a0.8,0.8 0 0 1 0.5,-0.978l2.821,-1.085a0.773,0.773 0 0 1 1.012,0.48a0.8,0.8 0 0 1 -0.5,0.978l-0.076,0.029a0.72,0.72 0 0 0 -0.333,1.083l2.22,3.2a1.009,1.009 0 0 0 1.063,0.4a16.2,16.2 0 0 1 3.849,-0.462l0,0a1.007,1.007 0 0 0 0.948,-0.666l0.735,-2.057a0.72,0.72 0 0 0 -0.463,-0.93a1.166,1.166 0 0 1 -0.81,-1.25a1.133,1.133 0 0 1 0.438,-0.759a1.24,1.24 0 0 1 0.912,-0.256l1.01,0.127a1.2,1.2 0 0 1 1.063,1.29a1.16,1.16 0 0 1 -0.866,1a0.72,0.72 0 0 0 -0.533,0.779l0.255,2.229a1,1 0 0 0 0.783,0.865a16,16 0 0 1 4.581,1.78a1.009,1.009 0 0 0 1.135,-0.089l3.046,-2.473a0.72,0.72 0 0 0 -0.006,-1.123l-0.463,-0.368a0.773,0.773 0 0 1 -0.1,-1.115a0.8,0.8 0 0 1 1.094,-0.069l2.367,1.879a0.773,0.773 0 0 1 0.1,1.115a0.8,0.8 0 0 1 -1.094,0.069l-0.064,-0.051a0.72,0.72 0 0 0 -1.1,0.263l-1.632,3.542a1.01,1.01 0 0 0 0.194,1.121c0.1,0.1 0.2,0.213 0.324,0.344a0.72,0.72 0 1 0 1.06,-0.975l-0.145,-0.157l1.185,-2.573a2.208,2.208 0 0 0 2.069,-3.826l-2.367,-1.879a2.232,2.232 0 0 0 -3.074,0.25a2.2,2.2 0 0 0 -0.538,1.658a2.224,2.224 0 0 0 0.605,1.329l-2.134,1.733a17.425,17.425 0 0 0 -4.427,-1.722l-0.158,-1.381a2.607,2.607 0 0 0 -0.976,-4.878l-1.01,-0.127a2.692,2.692 0 0 0 -1.979,0.551a2.565,2.565 0 0 0 -0.981,1.724a2.607,2.607 0 0 0 1.131,2.468l-0.417,1.167a17.633,17.633 0 0 0 -3.594,0.432l-1.612,-2.323a2.208,2.208 0 0 0 -2.246,-3.726l-2.82,1.085a2.231,2.231 0 0 0 -1.346,2.775a2.2,2.2 0 0 0 1.155,1.306a2.225,2.225 0 0 0 1.453,0.154l0.408,2.719a17.586,17.586 0 0 0 -3.852,3.072l-1.626,-0.7a2.156,2.156 0 0 0 -0.816,-2.08a2.144,2.144 0 0 0 -3,0.417l-1.206,1.594a2.161,2.161 0 0 0 0.312,2.971a2.126,2.126 0 0 0 1.618,0.484a2.149,2.149 0 0 0 1.021,-0.4l1.091,1.281a17.363,17.363 0 0 0 -1.989,5.83l-2.786,0.653a2.357,2.357 0 0 0 -2.113,-1.481a2.3,2.3 0 0 0 -1.669,0.656a2.419,2.419 0 0 0 -0.737,1.707l-0.025,2.777a2.328,2.328 0 0 0 2.328,2.349a2.366,2.366 0 0 0 2.312,-1.9l-0.021,0.018z" data-name="Path 118" id="Path_118"/>
     <path fill="#fff" d="m61.00797,64.81895a0.72,0.72 0 1 0 -0.675,-1.272a3.7,3.7 0 0 1 -4.663,-0.574a3.1,3.1 0 0 1 -0.533,-2.605a4.958,4.958 0 0 1 4.783,-3.771a3.1,3.1 0 0 1 2.409,1.127a3.482,3.482 0 0 1 -0.027,3.988a0.72,0.72 0 1 0 1.227,0.753a4.9,4.9 0 0 0 -0.07,-5.632a4.513,4.513 0 0 0 -3.5,-1.675a6.394,6.394 0 0 0 -6.233,4.914a4.513,4.513 0 0 0 0.811,3.794a4.593,4.593 0 0 0 3.667,1.67a6,6 0 0 0 2.804,-0.717z" data-name="Path 119" id="Path_119"/>
     <path fill="#fff" d="m74.982,58.36099a3.125,3.125 0 1 0 -3.1,2.708a2.925,2.925 0 0 0 3.1,-2.708zm-4.754,0a1.717,1.717 0 1 1 1.657,1.267a1.5,1.5 0 0 1 -1.657,-1.267z" data-name="Path 120" id="Path_120"/>
     <path fill="#fff" d="m66.62498,70.73999a3.318,3.318 0 1 0 -3.318,3.318a3.322,3.322 0 0 0 3.318,-3.318zm-5.2,0a1.878,1.878 0 1 1 1.878,1.878a1.88,1.88 0 0 1 -1.874,-1.878l-0.004,0z" data-name="Path 121" id="Path_121"/>
     <path fill="#fff" d="m76.01298,69.38397a2.58,2.58 0 1 0 -2.581,2.58a2.583,2.583 0 0 0 2.581,-2.58zm-3.721,0a1.14,1.14 0 1 1 1.14,1.14a1.142,1.142 0 0 1 -1.142,-1.14l0.002,0z" data-name="Path 122" id="Path_122"/>
     <path fill="#fff" d="m66.56299,80.98996a2.529,2.529 0 1 0 -2.529,-2.529a2.531,2.531 0 0 0 2.529,2.529zm0,-3.617a1.088,1.088 0 1 1 -1.088,1.089a1.09,1.09 0 0 1 1.088,-1.089z" data-name="Path 123" id="Path_123"/>
     <path fill="#fff" d="m55.24599,76.73695a2.6,2.6 0 1 0 -2.6,-2.6a2.607,2.607 0 0 0 2.6,2.6zm0,-3.768a1.164,1.164 0 1 1 -1.164,1.164a1.165,1.165 0 0 1 1.164,-1.161l0,-0.003z" data-name="Path 124" id="Path_124"/>
     <path fill="#fff" d="m69.91001,65.12298a0.72,0.72 0 0 0 -0.72,-0.72l-0.636,0a0.72,0.72 0 0 0 0,1.44l0.636,0a0.72,0.72 0 0 0 0.72,-0.72z" data-name="Path 125" id="Path_125"/>
     <path fill="#fff" d="m60.055,78.43098l0.654,0a0.72,0.72 0 1 0 0,-1.44l-0.654,0a0.72,0.72 0 0 0 0,1.44z" data-name="Path 126" id="Path_126"/>
     <path fill="#fff" d="m53.99199,67.94399a0.72,0.72 0 0 0 0,-1.44l-0.63,0a0.72,0.72 0 0 0 0,1.44l0.63,0z" data-name="Path 127" id="Path_127"/>
     <path fill="#fff" d="m66.782,55.34496a0.72,0.72 0 1 0 0,-1.44l-0.877,0a0.72,0.72 0 0 0 0,1.44l0.877,0z" data-name="Path 128" id="Path_128"/>
     <path fill="#fff" d="m71.57198,74.64395a0.72,0.72 0 0 0 0,1.44l0.968,0a0.72,0.72 0 0 0 0,-1.44l-0.968,0z" data-name="Path 129" id="Path_129"/>
    </g>
    <path fill="#fff" d="m74.176,30.97597a13.092,13.092 0 1 1 13.091,-13.089a13.107,13.107 0 0 1 -13.091,13.089zm0,-24.548a11.456,11.456 0 1 0 11.456,11.459a11.468,11.468 0 0 0 -11.456,-11.458l0,-0.001z" data-name="Path 130" id="Path_130"/>
    <path fill="#fff" d="m79.90402,18.70197l-11.456,0a0.818,0.818 0 0 1 0,-1.636l11.456,0a0.818,0.818 0 1 1 0,1.636z" data-name="Path 131" id="Path_131"/>
    <path fill="#fff" d="m74.176,24.42997a0.819,0.819 0 0 1 -0.818,-0.818l0,-11.456a0.818,0.818 0 1 1 1.636,0l0,11.456a0.818,0.818 0 0 1 -0.818,0.818z" data-name="Path 132" id="Path_132"/>
   </g>
  </g>
 </g>
</svg>