<svg width="96.573" height="95.316" xmlns="http://www.w3.org/2000/svg">

 <g>
  <title>Layer 1</title>
  <g data-name="Group 1171" id="Group_1171">
   <g data-name="Group 1065" id="Group_1065">
    <rect x="1.5" y="1.50004" stroke-width="3" stroke-miterlimit="10" stroke="#fff" fill="none" height="92.316" width="93.573" data-name="Rectangle 81" id="Rectangle_81"/>
    <g data-name="Group 1064" id="Group_1064">
     <g data-name="Group 1063" id="Group_1063">
      <path fill-rule="evenodd" stroke="#fff" d="m33.926,88.52604a2.648,2.648 0 0 1 -0.925,-0.267a16.683,16.683 0 0 1 -3.5,-1.9a57.4,57.4 0 0 1 -12.044,-10.687c-0.353,-0.455 -0.663,-0.944 -0.974,-1.43a1.8,1.8 0 0 1 0.166,-2.286c0.552,-0.691 1.18,-1.312 1.743,-1.994c1.551,-1.879 3.155,-3.714 4.735,-5.569c0.386,-0.453 0.761,-0.914 1.141,-1.371a0.431,0.431 0 0 0 0.1,-0.129c0.124,-0.416 0.958,0.1 0.851,-0.691c-0.064,-0.474 0.474,-0.686 0.713,-1.035c0.357,-0.523 0.783,-0.986 1.187,-1.471a0.855,0.855 0 0 1 1.186,-0.26a0.516,0.516 0 0 0 0.738,-0.168c2.476,-2.889 4.971,-5.761 7.45,-8.647c1.821,-2.119 3.6,-4.276 5.45,-6.369c0.931,-1.054 1.858,-2.117 2.758,-3.192c1.018,-1.216 2.078,-2.4 3.1,-3.606q2.393,-2.827 4.834,-5.616c1.078,-1.234 2.176,-2.456 3.2,-3.741c0.3,-0.38 0.662,-0.714 0.991,-1.073c0.5,-0.544 0.541,-0.76 0.179,-1.389a0.8,0.8 0 0 1 0.1,-1.07a16.619,16.619 0 0 1 1.956,-2.155c0.521,-0.394 0.641,-0.963 1.046,-1.375c0.428,-0.436 0.791,-0.935 1.193,-1.4c1.228,-1.415 2.413,-2.873 3.711,-4.22c0.8,-0.831 1.414,-1.794 2.156,-2.662a5.8,5.8 0 0 1 0.749,-0.778a1.783,1.783 0 0 1 1.875,-0.256a23.768,23.768 0 0 1 4.822,2.74a51.416,51.416 0 0 1 4.695,3.643a44,44 0 0 1 6.214,6.225a17.373,17.373 0 0 1 1.187,1.806a1.475,1.475 0 0 1 -0.168,1.847c-0.513,0.628 -1.033,1.259 -1.581,1.846c-1.579,1.689 -2.919,3.575 -4.483,5.272a20.285,20.285 0 0 0 -1.4,1.651a1.293,1.293 0 0 1 -0.93,0.669c-0.109,0.009 -0.249,0.059 -0.254,0.17c-0.043,1.067 -1,1.526 -1.507,2.28c-0.03,0.045 -0.071,0.082 -0.105,0.123c-0.723,0.886 -0.726,0.9 -1.807,0.54a0.511,0.511 0 0 0 -0.606,0.22c-0.564,0.656 -1.12,1.318 -1.68,1.977c-1.831,2.157 -3.652,4.323 -5.5,6.467c-1.67,1.941 -3.388,3.84 -5.044,5.793c-0.733,0.865 -1.452,1.743 -2.193,2.6q-2.773,3.215 -5.519,6.454c-1.064,1.249 -2.107,2.516 -3.176,3.76c-1.55,1.805 -3.1,3.611 -4.685,5.385a0.909,0.909 0 0 0 -0.077,1.214c0.4,0.728 0.388,0.758 -0.189,1.335a19.258,19.258 0 0 0 -1.32,1.5c-0.241,0.3 -0.417,0.7 -0.89,0.729a0.286,0.286 0 0 0 -0.185,0.171a10.153,10.153 0 0 1 -2.139,2.858c-0.88,1.094 -1.827,2.133 -2.742,3.2a6.012,6.012 0 0 1 -1,0.95c-0.415,0.307 -0.587,0.917 -0.955,1.336c-0.416,0.474 -0.824,0.956 -1.213,1.452a1.728,1.728 0 0 1 -1.435,0.594zm-17.412,-15.368a1.465,1.465 0 0 0 0.312,1.051a20.862,20.862 0 0 0 3.539,4.282a55.355,55.355 0 0 0 6.582,5.69a26.754,26.754 0 0 0 6.39,3.895a1.4,1.4 0 0 0 1.8,-0.35c0.48,-0.514 0.917,-1.067 1.387,-1.59a1.362,1.362 0 0 0 0.463,-0.944a0.379,0.379 0 0 1 0.276,-0.42a2.3,2.3 0 0 0 1.185,-0.9c1.454,-1.673 2.89,-3.363 4.336,-5.044a0.55,0.55 0 0 0 0.15,-0.635c-0.189,-0.443 0.04,-0.6 0.454,-0.6a0.686,0.686 0 0 0 0.567,-0.249c0.534,-0.61 1.078,-1.213 1.637,-1.8a0.725,0.725 0 0 0 0.106,-1.013c-0.386,-0.614 -0.316,-0.87 0.172,-1.438c1.575,-1.832 3.134,-3.679 4.7,-5.518q1.7,-2 3.4,-3.989c1.575,-1.833 3.162,-3.655 4.732,-5.491c1.407,-1.645 2.792,-3.307 4.2,-4.953c1.873,-2.194 3.76,-4.377 5.634,-6.57c1.651,-1.932 3.287,-3.878 4.943,-5.806c0.571,-0.664 0.665,-0.676 1.492,-0.354a0.521,0.521 0 0 0 0.674,-0.131q0.842,-0.988 1.692,-1.969a0.691,0.691 0 0 0 0.2,-0.641c-0.081,-0.374 0.076,-0.6 0.476,-0.605a0.9,0.9 0 0 0 0.685,-0.377c0.99,-1.143 2.01,-2.261 2.977,-3.424a11.137,11.137 0 0 0 2.131,-2.9a0.562,0.562 0 0 1 0.371,-0.3a1.1,1.1 0 0 0 0.491,-0.324c0.513,-0.6 1.036,-1.2 1.539,-1.815a1.527,1.527 0 0 0 0.133,-1.856a17.27,17.27 0 0 0 -2.822,-3.613a56.639,56.639 0 0 0 -6.929,-6.193a29.761,29.761 0 0 0 -6.922,-4.259a1.383,1.383 0 0 0 -1.677,0.31a12.561,12.561 0 0 0 -1.557,1.864a3.815,3.815 0 0 1 -1.279,1.532a7.289,7.289 0 0 0 -1.528,1.662c-1.1,1.289 -2.187,2.589 -3.292,3.874a0.73,0.73 0 0 0 -0.2,0.735c0.082,0.3 -0.024,0.53 -0.368,0.5a1.018,1.018 0 0 0 -0.909,0.486c-0.515,0.6 -1.01,1.225 -1.529,1.825a0.553,0.553 0 0 0 -0.019,0.733c0.464,0.823 0.421,0.868 -0.217,1.586c-1.341,1.509 -2.657,3.041 -3.973,4.571c-1.552,1.8 -3.092,3.621 -4.642,5.428q-2.553,2.976 -5.115,5.945q-2.433,2.83 -4.863,5.662q-2.541,2.952 -5.087,5.9c-1.4,1.625 -2.808,3.245 -4.2,4.878a0.746,0.746 0 0 1 -1.051,0.208a0.529,0.529 0 0 0 -0.791,0.149c-0.524,0.64 -1.048,1.279 -1.59,1.9a0.812,0.812 0 0 0 -0.25,0.729c0.071,0.387 -0.13,0.579 -0.511,0.586a0.787,0.787 0 0 0 -0.615,0.288c-1.611,1.873 -3.295,3.689 -4.79,5.65a13.422,13.422 0 0 1 -1.349,1.524c-0.528,0.513 -0.954,1.128 -1.445,1.681a1.109,1.109 0 0 0 -0.306,0.947z" data-name="Path 75" id="Path_75"/>
      <path fill-rule="evenodd" stroke="#fff" fill="none" d="m16.514,73.15804a1.109,1.109 0 0 1 0.308,-0.95c0.49,-0.553 0.917,-1.169 1.444,-1.681a13.424,13.424 0 0 0 1.349,-1.524c1.495,-1.961 3.179,-3.777 4.79,-5.65a0.787,0.787 0 0 1 0.615,-0.288c0.381,-0.007 0.583,-0.2 0.511,-0.586a0.812,0.812 0 0 1 0.25,-0.729c0.541,-0.625 1.066,-1.264 1.59,-1.9a0.529,0.529 0 0 1 0.791,-0.149a0.746,0.746 0 0 0 1.051,-0.208c1.392,-1.633 2.8,-3.253 4.2,-4.878q2.544,-2.949 5.087,-5.9q2.435,-2.829 4.863,-5.662q2.556,-2.973 5.115,-5.945c1.55,-1.807 3.089,-3.623 4.642,-5.428c1.316,-1.531 2.632,-3.062 3.973,-4.571c0.638,-0.718 0.681,-0.762 0.217,-1.586a0.553,0.553 0 0 1 0.019,-0.733c0.519,-0.6 1.014,-1.221 1.529,-1.825a1.018,1.018 0 0 1 0.909,-0.486c0.343,0.035 0.45,-0.2 0.368,-0.5a0.73,0.73 0 0 1 0.2,-0.735c1.105,-1.285 2.191,-2.585 3.292,-3.874a7.289,7.289 0 0 1 1.528,-1.662a3.815,3.815 0 0 0 1.279,-1.532a12.559,12.559 0 0 1 1.557,-1.864a1.383,1.383 0 0 1 1.677,-0.31a29.76,29.76 0 0 1 6.922,4.259a56.642,56.642 0 0 1 6.929,6.193a17.271,17.271 0 0 1 2.822,3.613a1.527,1.527 0 0 1 -0.133,1.856c-0.5,0.613 -1.025,1.21 -1.539,1.815a1.1,1.1 0 0 1 -0.491,0.324a0.562,0.562 0 0 0 -0.371,0.3a11.138,11.138 0 0 1 -2.131,2.9c-0.967,1.162 -1.987,2.281 -2.977,3.424a0.9,0.9 0 0 1 -0.685,0.377c-0.4,0.008 -0.557,0.231 -0.476,0.605a0.691,0.691 0 0 1 -0.2,0.641q-0.848,0.983 -1.692,1.969a0.521,0.521 0 0 1 -0.674,0.131c-0.827,-0.321 -0.921,-0.31 -1.492,0.354c-1.657,1.928 -3.292,3.873 -4.943,5.806c-1.874,2.193 -3.761,4.376 -5.634,6.57c-1.405,1.646 -2.791,3.309 -4.2,4.953c-1.57,1.836 -3.157,3.659 -4.732,5.491q-1.709,1.989 -3.4,3.989c-1.567,1.84 -3.126,3.686 -4.7,5.518c-0.488,0.568 -0.558,0.824 -0.172,1.438a0.725,0.725 0 0 1 -0.106,1.013c-0.559,0.588 -1.1,1.19 -1.637,1.8a0.686,0.686 0 0 1 -0.567,0.249c-0.414,0 -0.643,0.156 -0.454,0.6a0.55,0.55 0 0 1 -0.15,0.635c-1.445,1.681 -2.881,3.371 -4.336,5.044a2.3,2.3 0 0 1 -1.185,0.9a0.379,0.379 0 0 0 -0.276,0.42a1.362,1.362 0 0 1 -0.463,0.944c-0.47,0.523 -0.907,1.076 -1.387,1.59a1.4,1.4 0 0 1 -1.8,0.351a26.754,26.754 0 0 1 -6.39,-3.895a55.357,55.357 0 0 1 -6.582,-5.69a20.862,20.862 0 0 1 -3.539,-4.282a1.465,1.465 0 0 1 -0.313,-1.049zm35.85,-12.74a2.175,2.175 0 0 1 -2.232,2.225a14.5,14.5 0 0 1 -4.476,-0.924c-0.215,-0.067 -0.411,-0.172 -0.6,0.006c-0.223,0.208 -0.091,0.416 0.01,0.637a27.932,27.932 0 0 1 1.681,3.745a2.209,2.209 0 0 1 -1.284,2.812a3.447,3.447 0 0 1 -2.376,-0.091c-0.9,-0.245 -1.771,-0.565 -2.658,-0.845c-0.193,-0.061 -0.41,-0.084 -0.538,0.12s0.027,0.343 0.156,0.468c0.388,0.375 0.763,0.769 1.18,1.11a23.83,23.83 0 0 1 3.011,2.949c0.376,0.438 0.562,0.439 0.937,0.02c0.181,-0.2 0.383,-0.383 0.559,-0.589q2.322,-2.71 4.639,-5.425q1.883,-2.2 3.778,-4.381q2.21,-2.559 4.421,-5.117c1.286,-1.487 2.581,-2.965 3.861,-4.458q3.2,-3.737 6.393,-7.485c1.323,-1.547 2.663,-3.08 3.973,-4.637c0.666,-0.792 0.659,-0.832 -0.216,-1.412s-1.713,-1.257 -2.562,-1.9c-0.176,-0.133 -0.391,-0.344 -0.627,-0.157c-0.2,0.161 -0.106,0.406 -0.014,0.6a5.378,5.378 0 0 1 0.321,1.311a3.988,3.988 0 0 1 -0.726,2.96a0.769,0.769 0 0 1 -0.315,0.287a7.025,7.025 0 0 1 -2.429,0.678a12.875,12.875 0 0 1 -2.625,-0.327c-0.254,-0.037 -0.563,-0.16 -0.745,0.137c-0.166,0.271 0.015,0.522 0.13,0.762a8.662,8.662 0 0 1 0.856,3.714a2.839,2.839 0 0 1 -2.1,2.331a10.712,10.712 0 0 1 -3.794,-0.393c-0.241,-0.045 -0.482,-0.248 -0.7,-0.006s-0.077,0.5 0.024,0.759c0.284,0.721 0.565,1.443 0.835,2.169a3.572,3.572 0 0 1 -0.407,3.061a0.923,0.923 0 0 1 -0.4,0.354a4.177,4.177 0 0 1 -2.509,0.472a22.2,22.2 0 0 1 -3.357,-0.831c-0.247,-0.079 -0.508,-0.161 -0.7,0.071s-0.043,0.434 0.067,0.649a16.98,16.98 0 0 1 0.853,1.749a6.882,6.882 0 0 1 0.706,2.823l-0.001,-0.001zm-19.065,0.412c0,-0.235 -0.007,-0.47 0,-0.7a3.177,3.177 0 0 1 3.351,-2.868a15.69,15.69 0 0 1 2.925,0.516c0.2,0.06 0.4,0.105 0.553,-0.073a0.445,0.445 0 0 0 0,-0.557a6.6,6.6 0 0 1 -0.541,-1.411a6.19,6.19 0 0 1 -0.455,-2.747a2.633,2.633 0 0 1 1.964,-2.175a9.438,9.438 0 0 1 4.016,0.285c0.2,0.053 0.417,0.214 0.592,-0.027a0.525,0.525 0 0 0 0,-0.616a10.752,10.752 0 0 1 -0.782,-1.837a4.839,4.839 0 0 1 -0.058,-2.916c0.145,-0.753 1.951,-1.642 2.914,-1.431c1.286,0.282 2.568,0.562 3.828,0.945a0.56,0.56 0 0 0 0.648,-0.131c0.169,-0.2 0,-0.372 -0.075,-0.546s-0.159,-0.323 -0.237,-0.486a15.588,15.588 0 0 1 -1.363,-3.752a2.185,2.185 0 0 1 1.711,-2.618a5.334,5.334 0 0 1 2.449,0.143a14.05,14.05 0 0 1 2.448,0.68c0.205,0.08 0.432,0.135 0.6,-0.061s0.085,-0.4 -0.028,-0.6c-0.045,-0.078 -0.09,-0.156 -0.133,-0.236a13.733,13.733 0 0 1 -1.491,-3.643a2.134,2.134 0 0 1 2.6,-2.69a34.694,34.694 0 0 1 4.407,1.277c0.208,0.073 0.462,0.282 0.626,0s-0.07,-0.478 -0.287,-0.667c-0.693,-0.6 -1.385,-1.211 -2.048,-1.847a27.826,27.826 0 0 1 -2.867,-2.859c-0.255,-0.328 -0.506,-0.343 -0.772,0.033a9.825,9.825 0 0 1 -0.8,0.948c-1.752,1.914 -3.388,3.931 -5.073,5.9c-2.167,2.534 -4.345,5.06 -6.494,7.609c-2.544,3.018 -5.123,6.005 -7.691,9q-3.923,4.581 -7.857,9.153c-0.254,0.294 -0.32,0.542 0.027,0.755a29.809,29.809 0 0 1 2.818,2c0.157,0.124 0.35,0.231 0.546,0.094s0.153,-0.358 0.107,-0.548a5.444,5.444 0 0 1 -0.077,-1.296l-0.001,0zm26.816,-13.254l0.379,0c1.224,0 1.493,-0.379 1.166,-1.573a35.558,35.558 0 0 0 -1.351,-3.413a2.26,2.26 0 0 0 -1.678,-1.508c-1.062,-0.263 -2.076,-0.715 -3.13,-1.015a8.218,8.218 0 0 0 -2.116,-0.419c-0.714,-0.011 -0.938,0.262 -0.7,0.946a32.942,32.942 0 0 0 2.236,4.737c0.219,0.412 0.342,0.976 0.828,1.165a12.425,12.425 0 0 0 4.367,1.08l-0.001,0zm-23.146,11.813c-0.126,0 -0.253,-0.006 -0.379,0c-1.137,0.056 -1.418,0.435 -1.242,1.551a13.607,13.607 0 0 0 1.174,3.472a0.893,0.893 0 0 0 0.628,0.464c0.929,0.291 1.847,0.616 2.781,0.888a27.242,27.242 0 0 0 3.88,1.159c0.768,0.106 0.986,-0.129 0.717,-0.871a35.863,35.863 0 0 0 -2.793,-5.49a0.567,0.567 0 0 0 -0.327,-0.27a17.531,17.531 0 0 0 -4.439,-0.903zm5.4,-6.723a4.064,4.064 0 0 0 -0.557,0.036c-0.329,0.056 -0.588,0.231 -0.6,0.6a4.561,4.561 0 0 0 0.137,1.55c0.332,1.036 0.882,1.971 1.29,2.97a2.232,2.232 0 0 0 1.842,1.461a8.927,8.927 0 0 1 1.38,0.458a13.642,13.642 0 0 0 3.233,0.85c1.239,0.108 1.39,-0.13 0.925,-1.32c-0.506,-1.294 -1.173,-2.51 -1.777,-3.757c-0.517,-1.067 -1.059,-1.949 -2.348,-2.188a19.13,19.13 0 0 0 -3.517,-0.664l-0.008,0.004zm6.007,-6.281c-1.551,-0.012 -1.8,0.339 -1.459,1.418c0.011,0.034 0.027,0.067 0.038,0.1a30.367,30.367 0 0 0 1.594,3.72a1.7,1.7 0 0 0 1.193,0.923c0.5,0.135 1.01,0.262 1.5,0.444a12.818,12.818 0 0 0 4.246,0.941c0.439,0.009 0.679,-0.218 0.627,-0.663a7.378,7.378 0 0 0 -0.223,-1.165a36.117,36.117 0 0 0 -1.582,-3.605a1.233,1.233 0 0 0 -0.893,-0.771c-0.812,-0.235 -1.611,-0.516 -2.425,-0.745a14.363,14.363 0 0 0 -2.615,-0.6l-0.001,0.003zm17.549,-5.511l0.379,0c1.09,0 1.28,-0.218 1.241,-1.316a10.124,10.124 0 0 0 -1.184,-3.736a1.024,1.024 0 0 0 -0.683,-0.493c-1.368,-0.456 -2.732,-0.926 -4.1,-1.373a13.6,13.6 0 0 0 -2.446,-0.662c-0.752,-0.1 -0.93,0.155 -0.7,0.868c0.083,0.257 0.189,0.507 0.289,0.758c0.617,1.545 1.514,2.95 2.237,4.443a1.04,1.04 0 0 0 0.594,0.6a16.384,16.384 0 0 0 4.378,0.908l-0.005,0.003z" data-name="Path 76" id="Path_76"/>
      <path fill-rule="evenodd" stroke="#fff" d="m52.40199,60.41904a6.891,6.891 0 0 0 -0.705,-2.815a16.973,16.973 0 0 0 -0.853,-1.749c-0.11,-0.215 -0.252,-0.43 -0.067,-0.649s0.455,-0.15 0.7,-0.071a22.2,22.2 0 0 0 3.357,0.831a4.176,4.176 0 0 0 2.509,-0.472a0.922,0.922 0 0 0 0.4,-0.354a3.572,3.572 0 0 0 0.407,-3.06c-0.269,-0.727 -0.551,-1.448 -0.835,-2.169c-0.1,-0.255 -0.243,-0.516 -0.024,-0.759s0.46,-0.039 0.7,0.005a10.711,10.711 0 0 0 3.794,0.393a2.839,2.839 0 0 0 2.1,-2.331a8.662,8.662 0 0 0 -0.856,-3.714c-0.115,-0.24 -0.3,-0.491 -0.13,-0.762c0.182,-0.3 0.492,-0.174 0.745,-0.137a12.871,12.871 0 0 0 2.625,0.327a7.025,7.025 0 0 0 2.429,-0.678a0.769,0.769 0 0 0 0.315,-0.287a3.988,3.988 0 0 0 0.726,-2.96a5.378,5.378 0 0 0 -0.321,-1.311c-0.092,-0.2 -0.189,-0.441 0.014,-0.6c0.236,-0.187 0.451,0.024 0.627,0.157c0.848,0.64 1.674,1.308 2.562,1.9s0.882,0.62 0.216,1.412c-1.311,1.557 -2.65,3.09 -3.973,4.637q-3.2,3.741 -6.393,7.485c-1.279,1.492 -2.575,2.971 -3.861,4.457q-2.212,2.557 -4.421,5.118q-1.89,2.189 -3.778,4.381q-2.324,2.709 -4.639,5.425c-0.176,0.205 -0.378,0.387 -0.559,0.589c-0.376,0.418 -0.561,0.418 -0.937,-0.02a23.825,23.825 0 0 0 -3.011,-2.949c-0.417,-0.341 -0.792,-0.735 -1.18,-1.11c-0.13,-0.125 -0.279,-0.271 -0.156,-0.468s0.345,-0.18 0.538,-0.12c0.887,0.279 1.762,0.6 2.658,0.845a3.447,3.447 0 0 0 2.376,0.091a2.209,2.209 0 0 0 1.284,-2.812a27.926,27.926 0 0 0 -1.681,-3.745c-0.1,-0.221 -0.233,-0.429 -0.01,-0.637c0.191,-0.178 0.386,-0.073 0.6,-0.006a14.5,14.5 0 0 0 4.476,0.924a2.176,2.176 0 0 0 2.232,-2.232zm-11.917,7.983a0.711,0.711 0 0 0 0.31,0.384a37.268,37.268 0 0 1 3.559,3.388c0.448,0.5 0.469,0.531 0.9,0.032c0.882,-1.02 1.7,-2.094 2.6,-3.1c2.185,-2.467 4.323,-4.974 6.452,-7.488c1.258,-1.485 2.54,-2.949 3.813,-4.421c1.815,-2.1 3.64,-4.185 5.447,-6.289s3.573,-4.2 5.364,-6.293q1.9,-2.219 3.812,-4.421c0.225,-0.257 0.216,-0.392 -0.064,-0.591c-0.866,-0.616 -1.713,-1.258 -2.568,-1.89c-0.083,-0.062 -0.165,-0.177 -0.275,-0.088s-0.06,0.207 0,0.3a1.951,1.951 0 0 1 0.265,0.866a4.841,4.841 0 0 1 -0.392,2.628a2.3,2.3 0 0 1 -1.064,1.311a7.026,7.026 0 0 1 -5.011,0.242c-0.115,-0.033 -0.25,-0.135 -0.354,-0.025s0,0.238 0.058,0.344a7.989,7.989 0 0 1 0.807,3.977a2.869,2.869 0 0 1 -2.5,2.6a10.615,10.615 0 0 1 -3.7,-0.363c-0.121,-0.038 -0.258,-0.092 -0.351,0.027s0.026,0.229 0.074,0.341a9.693,9.693 0 0 1 0.616,1.5a4.559,4.559 0 0 1 0.239,2.927a3.238,3.238 0 0 1 -3.384,2.12a21.543,21.543 0 0 1 -3.562,-0.849c-0.117,-0.044 -0.256,-0.105 -0.348,0.019c-0.074,0.1 0.028,0.2 0.073,0.295a19.319,19.319 0 0 1 1.336,3.36a3.2,3.2 0 0 1 -0.053,2.377a2.555,2.555 0 0 1 -2.584,1.442a17.558,17.558 0 0 1 -2.918,-0.516c-0.392,-0.129 -0.77,-0.306 -1.169,-0.408c-0.25,-0.064 -0.514,0.008 -0.359,0.37c0.148,0.345 0.346,0.667 0.5,1.008a9.082,9.082 0 0 1 1.11,3.132a2.41,2.41 0 0 1 -2.493,2.829a8.009,8.009 0 0 1 -2.48,-0.5c-0.553,-0.158 -1.097,-0.372 -1.706,-0.577z" data-name="Path 77" id="Path_77"/>
      <path fill-rule="evenodd" stroke="#fff" d="m33.28601,60.83004a5.442,5.442 0 0 0 0.083,1.293c0.046,0.19 0.089,0.411 -0.107,0.548s-0.39,0.03 -0.546,-0.094a29.8,29.8 0 0 0 -2.818,-2c-0.347,-0.214 -0.281,-0.461 -0.027,-0.755q3.939,-4.567 7.857,-9.153c2.567,-3 5.147,-5.985 7.691,-9c2.149,-2.55 4.327,-5.075 6.494,-7.609c1.685,-1.971 3.321,-3.988 5.073,-5.9a9.833,9.833 0 0 0 0.8,-0.948c0.266,-0.376 0.517,-0.361 0.772,-0.033a27.817,27.817 0 0 0 2.867,2.859c0.663,0.636 1.355,1.243 2.048,1.847c0.216,0.188 0.458,0.37 0.287,0.667s-0.418,0.076 -0.626,0a34.7,34.7 0 0 0 -4.407,-1.277a2.134,2.134 0 0 0 -2.6,2.69a13.734,13.734 0 0 0 1.491,3.643c0.043,0.08 0.088,0.158 0.133,0.236c0.112,0.2 0.2,0.4 0.028,0.6s-0.4,0.141 -0.6,0.061a14.046,14.046 0 0 0 -2.448,-0.68a5.334,5.334 0 0 0 -2.449,-0.143a2.185,2.185 0 0 0 -1.711,2.618a15.59,15.59 0 0 0 1.363,3.752c0.078,0.163 0.163,0.322 0.237,0.486s0.244,0.345 0.075,0.546a0.56,0.56 0 0 1 -0.648,0.131c-1.26,-0.383 -2.542,-0.663 -3.828,-0.945c-0.963,-0.211 -2.769,0.678 -2.914,1.431a4.839,4.839 0 0 0 0.058,2.916a10.754,10.754 0 0 0 0.782,1.837a0.525,0.525 0 0 1 0,0.616c-0.175,0.241 -0.395,0.08 -0.592,0.027a9.438,9.438 0 0 0 -4.016,-0.285a2.633,2.633 0 0 0 -1.964,2.175a6.19,6.19 0 0 0 0.455,2.748a6.6,6.6 0 0 0 0.541,1.411a0.445,0.445 0 0 1 0,0.557c-0.155,0.178 -0.357,0.133 -0.553,0.073a15.688,15.688 0 0 0 -2.925,-0.516a3.177,3.177 0 0 0 -3.351,2.868c-0.012,0.233 -0.005,0.468 -0.005,0.702zm29.675,-28.811c-0.022,-0.081 -0.021,-0.124 -0.042,-0.146c-1.474,-1.529 -3.222,-2.777 -4.553,-4.452c-0.134,-0.168 -0.253,-0.131 -0.392,0.033c-0.49,0.577 -1.005,1.134 -1.494,1.712c-1.686,2 -3.355,4.006 -5.049,6c-1.577,1.852 -3.183,3.678 -4.763,5.526c-1.522,1.78 -2.981,3.616 -4.553,5.35c-1.841,2.031 -3.573,4.155 -5.359,6.232c-2.151,2.5 -4.305,5 -6.423,7.531c-0.289,0.346 -0.271,0.516 0.09,0.754c0.7,0.463 1.382,0.957 2.07,1.441c0.127,0.089 0.217,0.3 0.394,0.224c0.2,-0.087 0.056,-0.29 0.061,-0.44a8.768,8.768 0 0 1 0.108,-2.528a3.6,3.6 0 0 1 3.241,-2.278a14.905,14.905 0 0 1 3.048,0.359c0.355,0.056 0.477,0 0.319,-0.381a10.345,10.345 0 0 1 -0.6,-1.676a6.031,6.031 0 0 1 -0.426,-1.99a4.483,4.483 0 0 1 1.174,-2.272a1.506,1.506 0 0 1 0.878,-0.5a9.468,9.468 0 0 1 1.767,-0.229a21.633,21.633 0 0 1 2.349,0.361c0.141,0.012 0.3,0.089 0.4,-0.052s-0.016,-0.266 -0.064,-0.4a7.6,7.6 0 0 1 -0.824,-3.842a2.886,2.886 0 0 1 2.393,-2.367a11.677,11.677 0 0 1 4.729,0.848c0.131,0.043 0.264,0.176 0.392,0.029c0.1,-0.117 0,-0.238 -0.052,-0.35c-0.057,-0.132 -0.126,-0.26 -0.187,-0.391a15.113,15.113 0 0 1 -1.386,-3.9a2.572,2.572 0 0 1 2.393,-2.958a13.59,13.59 0 0 1 4.482,0.871c0.114,0.041 0.24,0.156 0.348,0.041s-0.039,-0.226 -0.088,-0.331c-0.306,-0.653 -0.641,-1.295 -0.924,-1.958c-0.471,-1.1 -1.03,-2.179 -0.527,-3.468a2.833,2.833 0 0 1 2.185,-1.568a17.478,17.478 0 0 1 4.129,1.011a1.16,1.16 0 0 0 0.756,0.155l0,-0.001z" data-name="Path 78" id="Path_78"/>
      <path fill-rule="evenodd" stroke="#fff" d="m60.15101,47.57703a12.425,12.425 0 0 1 -4.371,-1.08c-0.486,-0.19 -0.608,-0.754 -0.828,-1.165a32.952,32.952 0 0 1 -2.236,-4.737c-0.235,-0.684 -0.011,-0.957 0.7,-0.946a8.216,8.216 0 0 1 2.116,0.419c1.055,0.3 2.068,0.752 3.13,1.015a2.259,2.259 0 0 1 1.678,1.508a35.512,35.512 0 0 1 1.351,3.413c0.327,1.194 0.058,1.574 -1.166,1.573l-0.374,0zm-0.041,-0.33l0.381,0c0.928,0 0.937,-0.024 0.817,-0.957a14.9,14.9 0 0 0 -1.267,-3.477a1.99,1.99 0 0 0 -1.7,-1.424a7.2,7.2 0 0 1 -1.222,-0.419a14.871,14.871 0 0 0 -3.587,-0.9c-0.352,-0.022 -0.476,0.081 -0.4,0.423a2.489,2.489 0 0 0 0.111,0.526c0.738,1.54 1.438,3.1 2.276,4.59a1.282,1.282 0 0 0 0.884,0.764c0.508,0.1 0.988,0.354 1.5,0.446a7.568,7.568 0 0 0 2.204,0.428l0.003,0z" data-name="Path 79" id="Path_79"/>
      <path fill-rule="evenodd" stroke="#fff" d="m36.93799,59.38605a17.534,17.534 0 0 1 4.439,0.9a0.567,0.567 0 0 1 0.327,0.27a35.861,35.861 0 0 1 2.793,5.49c0.269,0.742 0.051,0.977 -0.717,0.871a27.236,27.236 0 0 1 -3.88,-1.159c-0.934,-0.273 -1.852,-0.6 -2.781,-0.888a0.893,0.893 0 0 1 -0.628,-0.464a13.606,13.606 0 0 1 -1.174,-3.472c-0.176,-1.116 0.1,-1.5 1.242,-1.551c0.126,-0.003 0.252,0.003 0.379,0.003zm-0.045,0.384c-1.236,0.009 -1.358,0.153 -1.151,1.386a11.218,11.218 0 0 0 0.788,2.46c0.153,0.366 0.22,0.843 0.771,0.959a16.415,16.415 0 0 1 1.7,0.512c1.538,0.5 3.055,1.069 4.623,1.477c0.158,0.041 0.325,0.1 0.462,-0.029c0.167,-0.158 0.059,-0.339 0,-0.5s-0.152,-0.328 -0.213,-0.5c-0.431,-1.193 -1.158,-2.238 -1.686,-3.384c-0.391,-0.85 -0.776,-1.632 -1.915,-1.813a23.09,23.09 0 0 0 -3.379,-0.568z" data-name="Path 80" id="Path_80"/>
      <path fill-rule="evenodd" stroke="#fff" d="m42.365,52.66203a19.128,19.128 0 0 1 3.527,0.656c1.289,0.239 1.831,1.122 2.348,2.188c0.6,1.247 1.271,2.463 1.777,3.757c0.465,1.19 0.314,1.428 -0.925,1.32a13.641,13.641 0 0 1 -3.233,-0.85a8.935,8.935 0 0 0 -1.38,-0.458a2.232,2.232 0 0 1 -1.842,-1.461c-0.408,-1 -0.958,-1.934 -1.29,-2.97a4.56,4.56 0 0 1 -0.137,-1.55c0.009,-0.364 0.268,-0.54 0.6,-0.6a4.059,4.059 0 0 1 0.555,-0.032zm0.292,0.457c-0.13,0 -0.4,-0.013 -0.671,0c-0.235,0.015 -0.449,0.115 -0.407,0.4a7.138,7.138 0 0 0 0.387,2c0.4,0.885 0.819,1.762 1.24,2.639a1.019,1.019 0 0 0 0.693,0.541c0.789,0.249 1.567,0.532 2.353,0.788a14.35,14.35 0 0 0 3.175,0.791c0.466,0.041 0.537,-0.091 0.387,-0.533a54.364,54.364 0 0 0 -2.353,-4.971a1.74,1.74 0 0 0 -1.408,-0.993c-0.158,-0.033 -0.314,-0.075 -0.47,-0.119a8.908,8.908 0 0 0 -2.926,-0.543z" data-name="Path 81" id="Path_81"/>
      <path fill-rule="evenodd" stroke="#fff" d="m48.394,46.38204a14.366,14.366 0 0 1 2.613,0.6c0.814,0.229 1.612,0.511 2.425,0.745a1.233,1.233 0 0 1 0.893,0.771a36.124,36.124 0 0 1 1.582,3.605a7.379,7.379 0 0 1 0.223,1.165c0.051,0.446 -0.188,0.672 -0.627,0.663a12.819,12.819 0 0 1 -4.246,-0.941c-0.486,-0.182 -0.993,-0.31 -1.5,-0.444a1.7,1.7 0 0 1 -1.193,-0.923a30.348,30.348 0 0 1 -1.594,-3.72c-0.011,-0.034 -0.027,-0.067 -0.038,-0.1c-0.344,-1.082 -0.089,-1.433 1.462,-1.421zm-0.545,0.37c-0.647,0.008 -0.809,0.126 -0.673,0.571a24.424,24.424 0 0 0 1.841,4.37a0.519,0.519 0 0 0 0.3,0.292a26.329,26.329 0 0 0 5.923,1.586c0.377,0.033 0.533,-0.086 0.481,-0.428a5.715,5.715 0 0 0 -0.337,-1.524c-0.449,-1 -0.907,-2 -1.418,-2.976a0.951,0.951 0 0 0 -0.63,-0.524c-0.794,-0.233 -1.583,-0.487 -2.366,-0.755a10.886,10.886 0 0 0 -3.12,-0.612l-0.001,0z" data-name="Path 82" id="Path_82"/>
      <path fill-rule="evenodd" stroke="#fff" d="m65.987,40.87102a16.386,16.386 0 0 1 -4.378,-0.911a1.04,1.04 0 0 1 -0.594,-0.6c-0.723,-1.492 -1.619,-2.9 -2.237,-4.443c-0.1,-0.251 -0.206,-0.5 -0.289,-0.758c-0.229,-0.713 -0.051,-0.965 0.7,-0.868a13.6,13.6 0 0 1 2.445,0.662c1.371,0.447 2.735,0.917 4.1,1.373a1.024,1.024 0 0 1 0.683,0.492a10.124,10.124 0 0 1 1.184,3.736c0.039,1.1 -0.15,1.312 -1.241,1.316l-0.373,0.001zm1.283,-1.517a15,15 0 0 0 -0.812,-2.618a1.656,1.656 0 0 0 -1.123,-1.165c-1.047,-0.323 -2.067,-0.736 -3.116,-1.049a15.632,15.632 0 0 0 -2.675,-0.774c-0.216,-0.024 -0.494,-0.2 -0.653,0.029s-0.009,0.48 0.085,0.719c0.609,1.542 1.516,2.934 2.232,4.422a1.5,1.5 0 0 0 0.953,0.863c0.471,0.149 0.955,0.16 1.42,0.3a11.449,11.449 0 0 0 2.675,0.527c0.874,0.049 1.022,-0.137 1.014,-1.254z" data-name="Path 83" id="Path_83"/>
      <path fill-rule="evenodd" stroke="#fff" fill="none" d="m40.48502,68.40003c0.61,0.205 1.153,0.42 1.714,0.569a8.008,8.008 0 0 0 2.48,0.5a2.41,2.41 0 0 0 2.493,-2.829a9.081,9.081 0 0 0 -1.11,-3.132c-0.158,-0.341 -0.357,-0.663 -0.5,-1.008c-0.155,-0.363 0.109,-0.434 0.359,-0.37c0.4,0.1 0.777,0.279 1.169,0.408a17.558,17.558 0 0 0 2.918,0.516a2.555,2.555 0 0 0 2.585,-1.442a3.2,3.2 0 0 0 0.053,-2.378a19.324,19.324 0 0 0 -1.336,-3.36c-0.045,-0.1 -0.147,-0.194 -0.073,-0.295c0.092,-0.125 0.231,-0.063 0.348,-0.019a21.547,21.547 0 0 0 3.562,0.849a3.238,3.238 0 0 0 3.384,-2.12a4.559,4.559 0 0 0 -0.239,-2.927a9.7,9.7 0 0 0 -0.616,-1.5c-0.048,-0.112 -0.173,-0.215 -0.074,-0.341s0.23,-0.066 0.351,-0.027a10.616,10.616 0 0 0 3.7,0.363a2.869,2.869 0 0 0 2.5,-2.6a7.989,7.989 0 0 0 -0.807,-3.977c-0.053,-0.106 -0.167,-0.23 -0.058,-0.344s0.239,-0.007 0.354,0.025a7.026,7.026 0 0 0 5.011,-0.242a2.305,2.305 0 0 0 1.064,-1.311a4.841,4.841 0 0 0 0.392,-2.628a1.951,1.951 0 0 0 -0.265,-0.866c-0.06,-0.091 -0.1,-0.218 0,-0.3s0.191,0.026 0.275,0.088c0.854,0.632 1.7,1.274 2.568,1.89c0.28,0.2 0.288,0.334 0.064,0.591q-1.92,2.2 -3.812,4.421c-1.791,2.1 -3.567,4.2 -5.364,6.293s-3.632,4.192 -5.447,6.289c-1.274,1.471 -2.556,2.936 -3.813,4.421c-2.129,2.515 -4.267,5.021 -6.452,7.488c-0.894,1.01 -1.716,2.083 -2.6,3.1c-0.431,0.5 -0.453,0.467 -0.9,-0.032a37.266,37.266 0 0 0 -3.559,-3.388a0.712,0.712 0 0 1 -0.319,-0.375z" data-name="Path 84" id="Path_84"/>
      <path fill-rule="evenodd" stroke="#fff" fill="none" d="m62.95601,32.01704a1.161,1.161 0 0 1 -0.752,-0.162a17.473,17.473 0 0 0 -4.129,-1.011a2.833,2.833 0 0 0 -2.185,1.567c-0.5,1.289 0.055,2.363 0.527,3.468c0.283,0.663 0.617,1.3 0.924,1.958c0.049,0.1 0.2,0.206 0.088,0.331s-0.233,0 -0.348,-0.041a13.591,13.591 0 0 0 -4.482,-0.871a2.572,2.572 0 0 0 -2.393,2.958a15.109,15.109 0 0 0 1.386,3.9c0.061,0.131 0.13,0.258 0.187,0.391c0.048,0.112 0.154,0.233 0.052,0.35c-0.128,0.146 -0.261,0.014 -0.392,-0.029a11.675,11.675 0 0 0 -4.729,-0.848a2.885,2.885 0 0 0 -2.393,2.367a7.6,7.6 0 0 0 0.823,3.842c0.048,0.133 0.173,0.256 0.064,0.4s-0.262,0.064 -0.4,0.052a21.65,21.65 0 0 0 -2.349,-0.361a9.469,9.469 0 0 0 -1.767,0.229a1.506,1.506 0 0 0 -0.878,0.5a4.483,4.483 0 0 0 -1.174,2.272a6.031,6.031 0 0 0 0.426,1.99a10.342,10.342 0 0 0 0.6,1.676c0.158,0.382 0.036,0.437 -0.319,0.381a14.9,14.9 0 0 0 -3.048,-0.359a3.6,3.6 0 0 0 -3.241,2.278a8.766,8.766 0 0 0 -0.108,2.528c0,0.15 0.136,0.354 -0.061,0.44c-0.177,0.078 -0.267,-0.135 -0.394,-0.224c-0.687,-0.484 -1.369,-0.977 -2.07,-1.441c-0.36,-0.238 -0.379,-0.409 -0.09,-0.754c2.118,-2.531 4.271,-5.031 6.423,-7.531c1.786,-2.076 3.517,-4.2 5.359,-6.232c1.572,-1.734 3.031,-3.57 4.553,-5.35c1.581,-1.848 3.187,-3.675 4.763,-5.526c1.694,-1.989 3.363,-4 5.049,-6c0.489,-0.578 1,-1.134 1.493,-1.712c0.139,-0.163 0.258,-0.2 0.392,-0.033c1.332,1.675 3.08,2.923 4.553,4.452c0.023,0.033 0.022,0.077 0.04,0.155z" data-name="Path 85" id="Path_85"/>
      <path fill-rule="evenodd" stroke="#fff" fill="none" d="m60.11099,47.24605a7.567,7.567 0 0 1 -2.214,-0.424c-0.509,-0.093 -0.989,-0.342 -1.5,-0.447a1.282,1.282 0 0 1 -0.884,-0.764c-0.838,-1.491 -1.538,-3.05 -2.276,-4.59a2.489,2.489 0 0 1 -0.111,-0.526c-0.077,-0.342 0.048,-0.446 0.4,-0.423a14.866,14.866 0 0 1 3.587,0.9a7.2,7.2 0 0 0 1.222,0.419a1.99,1.99 0 0 1 1.7,1.424a14.9,14.9 0 0 1 1.267,3.477c0.12,0.933 0.11,0.954 -0.817,0.957l-0.374,-0.003z" data-name="Path 86" id="Path_86"/>
      <path fill-rule="evenodd" stroke="#fff" fill="none" d="m36.894,59.77006a23.081,23.081 0 0 1 3.382,0.568c1.139,0.181 1.524,0.963 1.915,1.813c0.527,1.146 1.255,2.191 1.686,3.384c0.061,0.169 0.152,0.328 0.213,0.5s0.167,0.345 0,0.5c-0.137,0.13 -0.3,0.07 -0.462,0.029c-1.568,-0.408 -3.085,-0.975 -4.623,-1.477a16.432,16.432 0 0 0 -1.7,-0.512c-0.551,-0.116 -0.618,-0.593 -0.771,-0.959a11.221,11.221 0 0 1 -0.788,-2.46c-0.21,-1.233 -0.088,-1.38 1.148,-1.386z" data-name="Path 87" id="Path_87"/>
      <path fill-rule="evenodd" stroke="#fff" fill="none" d="m42.65699,53.11905a8.908,8.908 0 0 1 2.926,0.545c0.155,0.043 0.312,0.086 0.469,0.119a1.74,1.74 0 0 1 1.408,0.993a54.326,54.326 0 0 1 2.353,4.971c0.15,0.443 0.079,0.574 -0.387,0.533a14.354,14.354 0 0 1 -3.175,-0.791c-0.787,-0.256 -1.565,-0.539 -2.353,-0.788a1.018,1.018 0 0 1 -0.693,-0.541c-0.42,-0.876 -0.837,-1.753 -1.24,-2.639a7.139,7.139 0 0 1 -0.387,-2c-0.042,-0.28 0.171,-0.38 0.407,-0.4c0.271,-0.015 0.542,-0.002 0.672,-0.002z" data-name="Path 88" id="Path_88"/>
      <path fill-rule="evenodd" stroke="#fff" fill="none" d="m47.849,46.75205a10.884,10.884 0 0 1 3.117,0.611c0.783,0.268 1.572,0.522 2.366,0.755a0.951,0.951 0 0 1 0.63,0.524c0.512,0.974 0.969,1.972 1.418,2.976a5.718,5.718 0 0 1 0.337,1.524c0.052,0.342 -0.1,0.461 -0.481,0.428a26.328,26.328 0 0 1 -5.923,-1.586a0.519,0.519 0 0 1 -0.3,-0.292a24.417,24.417 0 0 1 -1.841,-4.37c-0.131,-0.444 0.03,-0.562 0.677,-0.57z" data-name="Path 89" id="Path_89"/>
      <path fill-rule="evenodd" stroke="#fff" fill="none" d="m67.267,39.35404c0.012,1.115 -0.136,1.3 -1.016,1.255a11.452,11.452 0 0 1 -2.675,-0.527c-0.465,-0.141 -0.949,-0.151 -1.42,-0.3a1.5,1.5 0 0 1 -0.953,-0.863c-0.716,-1.488 -1.623,-2.879 -2.232,-4.422c-0.094,-0.239 -0.235,-0.5 -0.085,-0.719s0.437,-0.054 0.653,-0.029a15.633,15.633 0 0 1 2.675,0.774c1.049,0.314 2.069,0.726 3.116,1.049a1.656,1.656 0 0 1 1.123,1.165a15,15 0 0 1 0.814,2.617z" data-name="Path 90" id="Path_90"/>
     </g>
    </g>
   </g>
  </g>
 </g>
</svg>